<?xml version="1.0" encoding="utf-8"?>
<!-- Generator: Adobe Illustrator 19.0.0, SVG Export Plug-In . SVG Version: 6.00 Build 0)  -->
<svg version="1.1" id="Layer_1" xmlns="http://www.w3.org/2000/svg" xmlns:xlink="http://www.w3.org/1999/xlink" x="0px" y="0px"
	 viewBox="0 0 500 500" style="enable-background:new 0 0 500 500;" xml:space="preserve">
<style type="text/css">
	.st0{fill:#0000FF;}
	.st1{fill:#FF3A41;}
	.st2{fill:#2020FF;}
</style>
<g id="XMLID_1_">
	<line id="XMLID_133_" class="st0" x1="0" y1="0" x2="500" y2="500"/>
	<g id="XMLID_71_">
		<g id="XMLID_3_">
			<g id="XMLID_4_">
				<g id="XMLID_5_">
					<path id="XMLID_6_" class="st1" d="M498.6,501.4c0.4,0.1,0.7-0.5-0.1-1.1l-1.2,0.2L498.6,501.4z"/>
					<path id="XMLID_7_" class="st1" d="M495,495.2c-1.2-0.5-2.8-0.9-2.9,0.3c1.5,0.2,1.4,0.7,3.2,0.8c0.8,0.6,1,1.5,0.7,1.6
						c0.4,0.1,1,1.3,1.8,1.2c-0.4-1.5-1.6-2.7-3.3-3.5C494.4,495.2,494.8,495.3,495,495.2z"/>
					<path id="XMLID_8_" class="st1" d="M425.2,423.2l0.4,0.5C425.5,423.6,425.4,423.4,425.2,423.2z"/>
					<path id="XMLID_10_" class="st1" d="M381.7,378.9c0.4,0.3,0.6,0.4,0.6,0.3C381.9,379,381.6,378.8,381.7,378.9z"/>
					<path id="XMLID_11_" class="st1" d="M374.9,370.6c0.1,0.2,0.3,0.3,0.4,0.5C375.2,370.9,375.1,370.7,374.9,370.6z"/>
					<path id="XMLID_12_" class="st1" d="M425.2,423.2l-1-1.4C423.9,422,424.7,422.6,425.2,423.2z"/>
					<path id="XMLID_13_" class="st1" d="M483.5,487.1c0.3,0.2,0.5,0.4,0.8,0.5c-0.2-0.2-0.5-0.3-0.7-0.5
						C483.6,487.1,483.6,487.1,483.5,487.1z"/>
					<path id="XMLID_14_" class="st1" d="M445.1,442l0.4,0.4c0.2,0,0.4,0,0.6,0L445.1,442z"/>
					<path id="XMLID_15_" class="st1" d="M460.1,456.8c-0.3-0.4-1,0.1-1.4,0.2c0.4-0.1,0.8,0.1,1.1,0.3
						C460,457.2,460,457.1,460.1,456.8z"/>
					<path id="XMLID_16_" class="st1" d="M482.6,481.4l0.5,0.3C483,481.7,482.8,481.5,482.6,481.4z"/>
					<path id="XMLID_17_" class="st1" d="M434.6,431.3c0.1-0.1,0.1-0.2,0.1-0.3C434.6,431,434.6,431.1,434.6,431.3z"/>
					<path id="XMLID_18_" class="st1" d="M14.4,20c0.1,0,0.1-0.1,0.1-0.1C14.4,19.9,14.3,19.9,14.4,20z"/>
					<path id="XMLID_19_" class="st1" d="M0.2-0.2l0.3,0.2C0.6,0,0.7-0.1,0.8-0.2L0.2-0.2z"/>
					<path id="XMLID_20_" class="st1" d="M362,356.1C362,356.2,362,356.2,362,356.1C362.4,356.5,362.2,356.3,362,356.1z"/>
					<path id="XMLID_21_" class="st1" d="M235.5,230.6c0.9,2-3-1.6-1.5,1.1C234.1,231.2,236.9,232.7,235.5,230.6z"/>
					<path id="XMLID_22_" class="st1" d="M483.2,486.7c-0.2-0.2-0.4-0.4-0.6-0.6C482.9,486.4,483.1,486.6,483.2,486.7z"/>
					<path id="XMLID_23_" class="st1" d="M234,231.7C234,231.7,234,231.7,234,231.7l0.2,0.3C234.1,231.8,234.1,231.8,234,231.7z"/>
					<path id="XMLID_24_" class="st1" d="M330,324.9c0,0.2,0,0.4,0.1,0.6C330.1,325.4,330.1,325.2,330,324.9z"/>
					<path id="XMLID_25_" class="st1" d="M352.7,349.3l-0.5-0.7C352.4,348.9,352.5,349.1,352.7,349.3z"/>
					<path id="XMLID_26_" class="st1" d="M316.9,313.5c-0.3-0.4-0.3-0.6-0.8-0.9c0,0.1,0,0.1,0.1,0.2
						C316.4,312.9,316.6,313,316.9,313.5z"/>
					<path id="XMLID_27_" class="st1" d="M304.2,300.8c0,0.1,0.1,0.2,0.1,0.4c0.1,0.1,0.3,0.3,0.4,0.4L304.2,300.8z"/>
					<path id="XMLID_28_" class="st1" d="M53.4,58.4c-0.1-0.4-0.1-0.8-0.1-1.1C53.1,57.9,51.1,56.2,53.4,58.4z"/>
					<path id="XMLID_29_" class="st1" d="M483.9,486.8c-0.2,0.1-0.4,0-0.6-0.1c0.2,0.1,0.3,0.3,0.5,0.4
						C483.8,487,483.9,486.9,483.9,486.8z"/>
					<path id="XMLID_30_" class="st1" d="M311.7,317.7l-1.9-2.1C310.2,316.2,311,316.9,311.7,317.7z"/>
					<path id="XMLID_31_" class="st1" d="M144.9,149.7l-0.5-0.4C144.5,149.5,144.7,149.7,144.9,149.7z"/>
					<path id="XMLID_32_" class="st1" d="M303.6,309.6c-0.2-0.6-0.4-1.1-0.7-1.6c-0.1,0-0.3-0.1-0.4-0.1L303.6,309.6z"/>
					<path id="XMLID_33_" class="st1" d="M53.4,57.3C53.4,57.3,53.4,57.3,53.4,57.3C53.4,57.3,53.4,57.3,53.4,57.3z"/>
					<path id="XMLID_34_" class="st1" d="M38.6,45.4c1.9,1.9,1.7,0.1,2.5,0.1c2.5,2.1,0.5,1.6,0.9,2.8c1.6,1.2,3.5,1.6,4.5,2.7
						c0,0.2,0.1,0.5-0.3,0.4c2.1,0.9,4.5,4.5,7.1,5.5c0.1,0.2,0.1,0.3,0,0.4c0.1-0.7,0.5-1.1,0.8-1.3c0.9,0.9,2.1,1.1,1.9,1.9
						c-0.5-0.5-0.8-0.4-1.2-0.5l1.1,0.7c0.1,1.6-1.5-1-2-0.4c2,1.5,4.7,3,5.8,4.5c-0.4,1-3.4-2.9-2.2-0.5l-1.8-2.4
						c0.5,2.7-1.2-1.4-0.9,1.3c2.5,3,3.4,2.7,6,5.7c1,0.2,0.4-0.8,1.4-0.6c4.6,3.2,1.3,4.9,5.1,6.8c1.2,0.3,2.4-0.4,4,2.2l-1.5,0.1
						c2.6,2.7,2.7,0.4,4.9,3.7c-0.8-0.2-2.4-1.8-2.1-1.3c1.2,2.5,1.7,0.8,3.1,2.2l-0.4,1c3,2.7,6.6,5.3,9.9,8.3
						c-0.4,0-1.2-0.3-0.6,0.7c4.3,3.6,8.4,8.6,11.8,12.8l2.1,0.8c0.3,0.3,0.3,0.9-0.1,0.7c1.3,1.7,0.5-0.3,1.4,0.2
						c0.9,0.8,0.8,1.5,0,1.1c3.2,2.1,8.6,6.4,10.7,9.8l-0.7-0.4c1.9,2.4,3.7,1.2,5.1,3.7l-0.5-0.3c4.4,5,10.2,9.6,12.8,14.1
						c1.6-0.2,4.2,5,5.8,4.1c2.1,3.3,1.1,2.8,4.4,6.9c0.9,1.1,2.3,0.7,3.7,1.8l-0.6,0.7l2.4,1l0.1,1.7l1.3,1
						c-0.4-0.5-0.7-1.3-0.4-1.4c2.1,1.5,4,4.9,3.7,5.3l4.9,3.8c-0.4,0.2-1.2-0.5-1.9-0.9c3,1.6-0.3,1.1,2.5,2.6
						c-0.1-0.4,0.5-0.2,0.7-0.3c0.7,1.4,3,3.8,5,5.4l-0.8,0.1c3.1,3.3,7,6.5,10.5,10.1c-1.1-1.5,0-2,1.1-1l-0.3,1.1
						c1.1,0.3-0.8-1.4,1.1-0.5c1.3,1.4,0.1,1.7-0.9,1.1l1.9,1.4c-0.1,0.3-0.6,0-1,0.2c1.1,0.2,2.1,3.5,3.8,3.7l-0.1,0.3
						c3.6,3.6,5.4,5,8.4,7.9c0.7-0.5,1.7,0.7,3,1.1c2,2.3,3.9,5.2,6.5,7.7c2.1,1.5,1,0,2.2,0.5c-0.4,0.7,2.2,3.2,0.5,2.3
						c3.2,3,4.1,3.9,8.4,7.3c-0.2-0.6-0.6-1.2-0.2-1.2c0.8,0.6,1.4,1.9,1,2l-0.2-0.1c5.2,3.6,8.6,11.8,13.2,14.1l-0.3-0.1l4.2,3.1
						c1.6,1.8-1.4-0.6-0.5,1c4.8,3,6.1,6.3,9.9,9c0.9,4.1,9,8.8,11.4,13.2l0.2-0.6c1.2,0.5,0.8,1.3,1.4,2c0.2-0.4-0.6-1.3,0.1-0.9
						c7.9,6.9,14.7,15.8,22,23.8c2.7,2.9,3.5-0.4,6.1,4l-1.7-0.3c6.4,4.8,11.4,11.5,17.6,16.3c-0.5-0.2-0.7,0-1.2-0.5
						c0.6,1.7,4.3,4.3,4.7,3.9c0.8,0.9-0.2,0.6,0.1,1.3c0.9,1.5,3.6,2.3,3.7,3.4c0,0.2-0.5-0.2-0.7-0.3c1,0.5,3.5,3.6,3.3,2.3
						c1.8,2.3,4.2,3.7,5.5,5.7c1.7,0.4,3.2,3.8,4.5,3.2c-1.1,0.8,2.8,4.4,4.6,5.2c-0.7-0.1,0.8,1.4-0.1,1.3c1.5,1.5,3,2.7,3.3,1.9
						c1.6,3.9,6.4,4.6,6.5,7.6c4.9,3.9,9.4,7.6,13.5,11.4c-1.1,0.8-4.5-4.3-5.3-3.1c4.2,3.4,7.2,4.7,10.7,8.7c0.8,1.1-1-0.1-1.5-0.3
						c4.2,3.4,7.2,7.4,11.1,10.2c-0.1,0.1-0.6-0.2-1-0.5c0.7,0.6,1.4,1.7,1.8,1.2l-0.8-0.5c-0.4-1.7,3.9,1.3,4.4,1.1
						c-2.4,0.1,3,3.6-0.4,3.4c0.5,0.4,1.3,0.7,1.5,0.3c0.6,0.7,0.6,1.1-0.4,0.8c2.6,2.1,2.2,0.8,4.4,3c-0.2,0.2-0.7-0.1-1.2-0.1
						c1.5,0.7,3,1.4,4.6,3.3c-0.2,0-0.2,0.4-0.7-0.1c3.2,3,6.4,4.2,9.4,8c-1.9-0.1,0.9,1.5,0.2,2.4l2.1,1.6l-0.4-1.1
						c1.6,1.6,3.6,2.5,4.7,4.1l-1.5-0.9l3.2,2.9l-1.4-2c2,1.2,0.8-1.2,2.7,1.2c-0.5-0.4,1.6,1.6,2,2.9c0,0,0,0,0,0
						c1,0.5,2.1,1.1,3.1,2.5c0.1,0.6-1.1,0.6-1.1,1c1.4,0.1,3.9,3.6,5.6,3.9c-0.5-0.2-0.9,0.2-0.9,0.4l1.2,0.1
						c0.6,0.9,0.6,1.1,0.1,1.3c2.1,2.3,0.3-1.7,2.5,1.4c-0.3-0.2-0.2,0-0.7-0.3c2.4,2.9,5.5,4.8,7.7,7.5c-0.1,1.5-2.3-1.9-2.2-0.4
						c3.7,3.4,8.3,6.4,11.5,10l-0.5-0.7c1.6-0.7,2,3.1,4.2,4.3c-0.5-0.3-1.2,0.1-0.9,0.1c2.2,2.5,5.1,4.5,9,7.7l-0.7-0.2
						c1.1,1.6,3.5,3.8,4.8,5.4c0.7,0.2,1.5,1.1,1.4,0.1c2.9,6.2,9.6,7.9,12.4,13.3c-0.5-0.5-1.4-0.9-1-0.5l3.7,3.2
						c0.2-0.8-0.2-0.8-0.5-1.9c0.7,0.1,1.9,0.9,2.8,1.8c-1.9-1.2-0.8,0.8-0.4,1.7c0-0.3,0.4-0.2,0.5-0.4c0.9,2.7,1.3-0.7,3.2,2.4
						l-0.4,0.1c1.1,0.8,2.3,1.3,3.2,2.4c-0.2,1-1.3-0.7-1.8-0.3c1.4,1.4,3.8,1.7,4.5,3.5c-0.8-0.4-1.6-1.3-2.4-1.7c0.7,2,1,2,2,3.2
						l-0.1-0.1l2.1,2.7l-0.4-0.8c3.2,0.3,3.8,3.3,7.2,4.7c-3.2-1.4-0.9,0.2-1.7,0.6c0.4,0.8,1.1,1.9,0.7,1.8
						c1.6,0.6,1.5,2.3,3.8,3.1c-0.1,0.3,1.2,1.2,0.4,1.5c1.6,1.3,0-0.7,0.4-0.8c2.9,1.5,4.4,6.1,8.6,8.4c3.2,2.4,4.4,2.2,7.3,4.4
						c0.5,1.2-1.5,0-1.5,0c1.1,1.7,2.2,2.7,3.8,3.8c-0.4-0.1-0.3,0.3-0.2,1c1.1,1,1.5,0,2.6,1.7c-0.5,0-1.1,0.1-1.9-0.2
						c1.4,1.1,3.1,1.9,4.5,3c0,0.7-1.3-0.2-2-0.5c1.6,1.3,4.1,3.4,5.1,3.3l-0.7-1.1c0.6,0.5-0.2,0.8-0.7,0.5c-1.7-0.8-1.6-2-1.5-2.3
						l1.1,0.8c0.3-2.2-3.9-3.5-5.7-5.4l1.7-0.1l-2.6-1.2c-0.2-0.6,0-1.4,1.1-0.6c-0.9-1.8-1.5-0.9-2.2-2.5c-0.1-0.2,0-0.2,0.2-0.1
						l-1.6-1c0.4,0.1,0.4-0.8,1.1,0.1c-1.8-2.8-4.4-3.1-4.6-4.7l0.2,0.1c-3.5-2.9-1,0.3-4.2-1.3l0-3.2l-1,0.3
						c-0.3-0.4-0.9-1.1-0.5-1.2c-1.7-0.8-0.1,0.5-1.2,0.2c-1-2.2-4.7-4.2-4-5.6c-1.1-0.1,1.2,1.9-0.9,0.5c0.6-1.6-2.2-1.8-3.1-3.8
						c1-0.1,2.1,1.6,1.2-0.4c-1.9,0.1-2.7-3.1-4.1-4.1c-0.8,0.7-3-2.4-5.4-4.2c0.4-0.1-3.5-4.3-5.1-6.6l0.2-0.1
						c-1.2,0.4-3-1.7-4.6-3c0.5-0.4,1-0.3,2,0.2l-1.4-1.4c-0.6-0.1-1.1-0.4-2.1-1.2l0.9-0.2c-1.9-1.8-4.3-3-6.3-5.7
						c-0.7,0.4,0.3,3.4-2.5,1.3c0.2-0.4,0.6-1,1.4-0.5c-0.3-0.2-1-0.5-1.3-1.1l1.5,0.5c-0.8-1.3-1-0.1-1.8-1
						c0.4-0.4-0.3-0.9,0.1-1.1c0.3,0.2,0.6,0.9,1.1,1.1c-0.9-1-1.8-2.4-1.9-3.1c-0.2,0.3-0.6,0.6-1.3-0.1c-1.8-1.8-0.1-1.1-1-2.4
						c-0.7-0.1-1.6-1.6-2.2-1c-0.5-0.5-0.3-0.9-0.4-1.3c-1.2-0.7-4.5-4.3-4.1-2.6l0.2,0.3c-0.1,0-0.1-0.1-0.2-0.1c0,0,0,0,0,0l0,0
						c-3.7-2.5-6.1-6.8-9.4-9.6l0.2-0.2c-2.1-1.6-4.2-3.9-6-4.8c-0.5-0.5-0.9-1.7-0.4-1.7c-1.6-1.2-1.9-1.2-3.6-3.5
						c1.8,1-0.2-0.8,1.7,1.2c-1.6-2-1.7-2.7-4.2-4.1c1.2,0.1-0.7-2-1.7-2.7l0.9,1.7c-1-0.9-1.8-1.8-2.7-2.7l1.2-0.2
						c-2.9-4.6-8.2-5.2-9.6-9.5c-1.5-0.5,1.7,2.4,0.2,2.1c-1.6-1.8-2.4-4.6-2.9-5.1c-1.9-2.7-3.2-1.2-5.4-3.9
						c0.1,0.6-0.3,1.5-2.4-0.1c-1.6-1.8-1-3.2,0.2-2.3c0.4,0.4,0.5,0.7,0.4,0.7c0.6,0.5,1.5,1.1,1.1,0.1l-0.5,0
						c-0.6-1.1-3-3.4-2-3.3c-1.5-1.1-1-0.1-0.1,0.9c-1.8-2.6-3.4-3.4-5.4-5.9c0.2,0.5,0.3,1.1-0.1,0.8c-3-3.6-1.9-1-4.3-3.1
						c-0.9-1.7,1.4-0.5-1.2-2.4c-1.1-1.6,0.4-1,1.1-0.6c-2.5-1.6-3.5-4.2-4.6-5.4l1.3,0.9c-0.8-0.5-1.3-1.1-1.8-1.6l0.1,1.1
						c-0.5-0.7-1.1-1.3-0.9-1.5c-1-0.3-0.3,1.3-2.1,0.5c-0.6-1.1-2.9-2.3-2.5-3.3c2.4,2.9,0.4-1,2.7,1.2c-0.5-0.4-1-0.9-1.6-1.6
						c0-0.2,0.2,0,0.4,0.1c-2-3.2-1.9-0.4-4.6-3.1c0.7,0,0.1-1.3-0.4-1.7c1.1,1.1-0.1,1.1-1.4,0.4c-1.4-2-2.1-1.6-2.9-2.5l0.9,1.2
						c-0.7,0-1.5-0.9-2.8-1.9c0.2-0.4,1.3,0.9,1,0.3c-2-0.7-2.3-3.7-4.6-5c-0.6-1.1,0.6-0.8,0.1-1.7c-2.5-1.6-1.7-2.7-4.3-4.5
						c0.1,1.1,0.3,1.1-1.7,0.1l3.9,3.2l-3-1.5c1.1,1.1,2.6,1.9,3.1,2.7c-1.5-0.7-1.3-0.7-1.2,0.2c-0.7-2.2-3.3-2.5-4.5-4.7l1.3-1.2
						c-2-3.1-5.2-3.9-8.2-7.5l0.8,1.3c-0.9,0.1-2.1-2-3.4-2.8c0.5-0.3,0-1.1-0.2-1.9c-0.3,0.4-2.4-2.4-3.5-1.9l-0.9-2
						c-2.4-2.9-4.2-1.9-6.7-4.6c1.2,0.3,0.4-1.1,2.4,0.2c-0.9-0.9-1.5-1.7-1.8-1.4c-0.2-0.8-2.9-1.8-3.3-3c-0.5-0.2-1.1,0.1-2-0.9
						c0-0.2,0.2-0.2,0.2-0.2c-0.2,0.2-1.8-1.2-1.4,0.1c-1.3-3.9-7.5-7.3-8.6-10.7c-2-1.7-4.4-3.8-6.1-5.5c0.2,0,0.2-0.2,0.5,0.2
						c-2-2.7-2.6-0.2-4.9-3.3c-0.7-2,1.8,1,1.2-0.1c1-1.7-3.4-3-4.4-5.6l0.5,0.4c-0.9-1.8-3.9-2.8-6-5.2c0,0,0.2,0,0.2-0.2
						c-2.2-0.8-5.4-3.5-7.7-5.5c1.2,0.1,1.3,0.7,1.4-0.3c-1-0.9-0.6,1.2-2.7-0.6c-0.3-0.9-1.5-2.6-1.1-3.3l1.8,1.8
						c-0.2-1.7-2.4-2.3-3.2-3.4l0.5-0.2c-2.9-2.7-3.8-1.9-6.7-4.9l0.1,0.6c-2.5-0.8-0.9-1.8-3.2-2.9l0.3-1.3c-1.3-0.9-4.6-3-6.7-4.8
						c1.7,0.5,4.3,2.4,6.1,3.5c-1.1-1.1-3.7-3.6-4.7-3.7c0.5,0.4,1.3,0.7,1.6,1.2c-2-0.7-4-2.1-6.1-4.2c2-1.2-5.1-6-5.4-8.8
						c-4.4-3.2-7.2-7.7-11.7-12c0.3,2.8-1.3-1.2-2.3,0.3c-1.1-0.9-1.5-1.4-1.5-1.5l-2.3-3.9c-0.4-1.1,1.3,0.7,1.5,0.3
						c-2.1-2.3-0.4-1.5-1.5-3.3c-0.2,0.8-1.4-0.1-2.5-1.6l1.2,2.4c-3.8-2.4-1.6-3.8-5.5-6.3l1.4,0.6c-1.9-1.4-6-6-8.6-6.5
						c-0.1-0.4-0.2-1.2,0.6-0.6c-3.7-4-9.7-7.5-12.1-11.2l0.6,0c-0.8-0.6-1.9-0.7-2.4-1.9c0.2-0.1,0.6,0,0.3-0.4
						c-0.5-0.3-2.5-1.4-3.2-2.5l1.2,0.5c-3.4-4.2-6.7-4.9-10-7.9c0.9-0.9-1.7-4.2-3.1-5.8l0.2-0.1c-4.3-4.5-8.2-6.7-12.7-10.4
						c-1.5-3.5-8.1-9-11.6-13.6c0.5,0.8-0.8,0.6-1.6,0c-0.8-1.1-3.3-2-2.3-2.7l0.3,0.4c0.1-1.6-2.1-3.3-3.6-4.8l-1.4,0.9
						c-2.4-5.6-11.1-9.9-11.8-13.5c-1.2-0.7-2.4-1.9-3.7-2.6l0.7-0.5c-2.5-2.8-3.8-4.2-7.2-7.4l1.1,0.2c-1.8-1.9-4.1-0.6-5.8-2.3
						l0.4-1.4c-3.3-3.2-5.8-7.3-9.8-9.7c0.2-0.1,0.5-0.2,1.1,0.2c-1.5-1.6-5.3-6.5-6-4.7c0.8-0.8-3.3-3.4-5.4-4.8l0.9-0.3
						c-2.2-0.7-2.5-0.6-4.8-2.4c-0.4-0.6,0-0.9,0.5-0.1c-1.3-1.9-1.8-0.7-3.5-3l1.1,0.4c-1.6-1.7-1.7-1.4-3.1-1.9
						c-1.3-0.8-3-3.3-2.8-4.1c-0.6,0.1-1.9-0.4-2.7-1.5c0.1-0.3,0.6-0.1,0.8,0c-2.4-3.2-4.9-3.5-6.2-6c0.2-0.2,0.1-0.5,0-0.7
						c2.2,2.3,4,4.1,3.8,4c0.5-0.5-1.2-2.4,1-1.8c-1.9-1-5.2-2.6-6.7-4.6c0-0.1-0.1-0.3,0-0.4l0.2,0.1c-0.4-0.5-0.8-0.8-1.2-1
						c-0.5-0.7-0.8-1.1-1.3-1.6c0.2-0.7-1.8-2.3-2.7-3.2c-0.5,0.7-1.6-0.6-1,1c-0.1-0.2,0.2,0.1,0.9,0.7c0.2,0.1,0.3,0.3,0.4,0.3
						c0,0-0.1,0-0.1,0c0.6,0.6,1.4,1.3,2.3,2.2c-1-0.4-2-0.9-2.7-2.2c-0.8-0.1-1.7-0.2-2.2-0.3c-0.4-2.1-2.3-4.9-2.1-5.7
						c-3.1-2.4-6.7-6.3-9.5-6.9c-0.9-0.6-0.6-1.2-0.7-1.7c0.6,0.3,1.1,0.9,1.5,1c-1.9-1.3-4.7-4.5-5.9-4.1c-1.6-2.3,1.8,0.4-1-2.2
						l0.6,0.1c-4.1-6.6-10.7-6.7-15-14.2c0.3,0.5,0.5,0.8,0.4,1c-6-7.4-14.5-13.2-20.1-21c-1.7-2.1-2.4-1.8-3.9-2.6l0.2-1l-2.7-1.2
						c-3.3-2.3-3.3-6.4-7.8-8.9l0,0.9C14.1,12,11,9.6,11.7,9.3c-0.2-0.1-0.9,0-1.1-0.7l0.3-0.4L7.2,5.7C5,3.1,8.9,4.8,5.4,1.2
						C4,0,0.7-1.6,1-0.9c0.5,0.5,1.1,1.6,0.8,1.9l-1.4-1c-1.2,0.8-3.1,0.9-0.9,4.5L2.2,6l0.2,1.1L0.6,5.4c0.5,1.4,1.5,1.7,2.5,2.1
						c-0.1,0.4,0,0.9,0.3,1.4l3,1.1c-0.1,0.6-1.7-0.1-0.5,1.4c1.4,0.5,0-1.8,1.8-0.5c0.5,1.4-0.1,1.5,1.4,2.3
						c-0.1,0.4-0.5,0.3-1.1,0c1.3,0.7,2.8,2.6,3.9,2.6c0.5,1.6,3.6,3.3,2.6,4.2c0.5,0.1,2.5,1.1,3.5,2c-2.8-0.6,3.5,3.6,1.8,4.3
						c2.3,0.3,5.1,4.2,7.9,5.9c-0.2,0-0.6-0.1-0.8-0.4c1.2,1.4,1.3,2,1.9,3c1-0.7,3.2,1.1,4.7,1.7c0.8,2.4-1.9,0-2.2,1.3
						c0.6-0.8,3.4,2,3.4,0.9c0.7,1.7,0.8,1.3,0.7,2.6c1.2-0.8,1.3,0.9,2.9,1.3c1.2,2.2-0.5,1.4,1.7,3C40.7,46.7,38.6,45.4,38.6,45.4
						z M85.4,88.6C85.4,88.6,85.4,88.6,85.4,88.6c-0.4-0.4-0.8-0.7-1-0.9C84.7,87.9,85,88.2,85.4,88.6z M89.2,92.4
						c-0.4-0.5-1-1.1-1.6-1.7c0.1-0.3,0.4-0.4,0.8,0C88.1,90.7,88.9,91.7,89.2,92.4z M85.4,80.3c0.7,0.5,0.8,0.8,0.7,1
						c-0.3-0.3-0.6-0.6-1.1-1c0,0-0.1,0-0.1,0C85,80.3,85.2,80.2,85.4,80.3z"/>
					<path id="XMLID_39_" class="st1" d="M83.5,80c-0.1-0.1-0.2-0.1-0.3-0.2c0.1,0.2,0.1,0.3,0.2,0.5c0.1,0,0.3,0,0.4,0
						C83.7,80.2,83.6,80.1,83.5,80z"/>
					<path id="XMLID_40_" class="st1" d="M425.6,423.9L425.6,423.9c0,0,0,0.1,0,0.2C425.6,423.9,425.6,423.9,425.6,423.9z"/>
					<polygon id="XMLID_41_" class="st1" points="140.4,145.8 140.5,145.6 140,145.4 					"/>
					<path id="XMLID_42_" class="st1" d="M444.4,446.8c0,0.1,0,0.2,0.1,0.4C444.6,447.1,444.5,447,444.4,446.8z"/>
					<path id="XMLID_43_" class="st1" d="M453.3,455.9l1.1,1.5C453.9,456.7,453.6,456.2,453.3,455.9z"/>
					<path id="XMLID_44_" class="st1" d="M459.9,463.1c0.2,0,0.3-0.1,0.4-0.1c0,0,0,0,0,0L459.9,463.1z"/>
					<path id="XMLID_45_" class="st1" d="M349.2,353.8c-0.1-0.1-0.2-0.2-0.3-0.2C348.1,353,348.6,353.4,349.2,353.8z"/>
					<path id="XMLID_46_" class="st1" d="M383.3,385.1c-0.5-0.2-0.9-0.5-1.3-0.8C382.5,385,383,385.4,383.3,385.1z"/>
					<path id="XMLID_47_" class="st1" d="M311.9,317.9C311.9,317.9,311.9,317.9,311.9,317.9c-0.1-0.1-0.1-0.2-0.2-0.2L311.9,317.9z"
						/>
					<path id="XMLID_48_" class="st1" d="M380.5,382.8c0.5,0.7,1,1.2,1.5,1.5C381.5,383.8,381,383.2,380.5,382.8z"/>
					<path id="XMLID_49_" class="st1" d="M489.7,493.4l0.3,0.4c0,0,0.1-0.1,0.1-0.1L489.7,493.4z"/>
					<path id="XMLID_50_" class="st1" d="M490.1,493.7l0.4,0.3C490.4,493.8,490.2,493.7,490.1,493.7z"/>
					<path id="XMLID_51_" class="st1" d="M491.5,494.6l-0.9-0.6C490.8,494.2,491.1,494.6,491.5,494.6z"/>
					<path id="XMLID_52_" class="st1" d="M480.8,483.9l-0.3,0.1C480.5,484.1,480.7,484,480.8,483.9z"/>
					<path id="XMLID_53_" class="st1" d="M477.9,481.2c0.6,0.7,1.2,2.1,2.3,2.9l0.3-0.1C479.7,483.9,478.9,481.5,477.9,481.2z"/>
					<path id="XMLID_54_" class="st1" d="M469,466.9l2.2,2.5c-0.2-0.6-0.4-1.5,0.7-0.5C469.6,465.3,471.9,470.1,469,466.9z"/>
					<path id="XMLID_55_" class="st1" d="M462.1,459.3c1.4,1.1,0.3-0.3,0.5-0.4C461.6,458.4,461.3,458.2,462.1,459.3z"/>
					<path id="XMLID_56_" class="st1" d="M409.8,407.1l0.7-0.4C409.4,405.8,410.2,406.8,409.8,407.1z"/>
					<polygon id="XMLID_57_" class="st1" points="397,399.9 397.6,401.2 398.5,401.1 					"/>
					<polygon id="XMLID_58_" class="st1" points="395,390.1 395.5,390.4 393.6,389 					"/>
					<path id="XMLID_59_" class="st1" d="M306.9,302.5l-0.4,1C307.3,304,308.2,303.4,306.9,302.5z"/>
					<path id="XMLID_60_" class="st1" d="M268.4,265.3c-0.1-0.7-0.9-2-1.9-2.4C267.3,263.8,267.8,264.9,268.4,265.3z"/>
					<polygon id="XMLID_61_" class="st1" points="155.8,150.5 156.7,151 155.1,149.8 					"/>
				</g>
			</g>
		</g>
	</g>
</g>
<g id="XMLID_2_">
	<g id="XMLID_202_">
		<g id="XMLID_206_">
			<g id="XMLID_207_">
				<g id="XMLID_208_">
					<path id="XMLID_263_" class="st2" d="M501.4,1.4c0.1-0.4-0.5-0.7-1.1,0.1l0.2,1.2L501.4,1.4z"/>
					<path id="XMLID_262_" class="st2" d="M495.2,5c-0.5,1.2-0.9,2.8,0.3,2.9c0.2-1.5,0.7-1.4,0.8-3.2c0.6-0.8,1.5-1,1.6-0.7
						c0.1-0.4,1.3-1,1.2-1.8c-1.5,0.4-2.7,1.6-3.5,3.3C495.2,5.6,495.3,5.2,495.2,5z"/>
					<path id="XMLID_261_" class="st2" d="M423.2,74.8l0.5-0.4C423.6,74.5,423.4,74.6,423.2,74.8z"/>
					<path id="XMLID_260_" class="st2" d="M378.9,118.3c0.3-0.4,0.4-0.6,0.3-0.6C379,118.1,378.8,118.4,378.9,118.3z"/>
					<path id="XMLID_259_" class="st2" d="M370.6,125.1c0.2-0.1,0.3-0.3,0.5-0.4C370.9,124.8,370.7,124.9,370.6,125.1z"/>
					<path id="XMLID_258_" class="st2" d="M423.2,74.8l-1.4,1C422,76.1,422.6,75.3,423.2,74.8z"/>
					<path id="XMLID_257_" class="st2" d="M487.1,16.5c0.2-0.3,0.4-0.5,0.5-0.8c-0.2,0.2-0.3,0.5-0.5,0.7
						C487.1,16.4,487.1,16.4,487.1,16.5z"/>
					<path id="XMLID_256_" class="st2" d="M442,54.9l0.4-0.4c0-0.2,0-0.4,0-0.6L442,54.9z"/>
					<path id="XMLID_255_" class="st2" d="M456.8,39.9c-0.4,0.3,0.1,1,0.2,1.4c-0.1-0.4,0.1-0.8,0.3-1.1
						C457.2,40,457.1,40,456.8,39.9z"/>
					<path id="XMLID_254_" class="st2" d="M481.4,17.4l0.3-0.5C481.7,17,481.5,17.2,481.4,17.4z"/>
					<path id="XMLID_253_" class="st2" d="M431.3,65.4c-0.1-0.1-0.2-0.1-0.3-0.1C431,65.4,431.1,65.4,431.3,65.4z"/>
					<path id="XMLID_252_" class="st2" d="M20,485.6c0-0.1-0.1-0.1-0.1-0.1C19.9,485.6,19.9,485.7,20,485.6z"/>
					<path id="XMLID_251_" class="st2" d="M-0.2,499.8l0.2-0.3c-0.1-0.1-0.2-0.3-0.3-0.4L-0.2,499.8z"/>
					<path id="XMLID_250_" class="st2" d="M356.1,138C356.2,138,356.2,138,356.1,138C356.5,137.6,356.3,137.8,356.1,138z"/>
					<path id="XMLID_249_" class="st2" d="M230.6,264.5c2-0.9-1.6,3,1.1,1.5C231.2,265.9,232.7,263.1,230.6,264.5z"/>
					<path id="XMLID_248_" class="st2" d="M486.7,16.8c-0.2,0.2-0.4,0.4-0.6,0.6C486.4,17.1,486.6,16.9,486.7,16.8z"/>
					<path id="XMLID_247_" class="st2" d="M231.7,266C231.7,266,231.7,266,231.7,266l0.3-0.2C231.8,265.9,231.8,265.9,231.7,266z"/>
					<path id="XMLID_246_" class="st2" d="M324.9,170c0.2,0,0.4,0,0.6-0.1C325.4,169.9,325.2,169.9,324.9,170z"/>
					<path id="XMLID_245_" class="st2" d="M349.3,147.3l-0.7,0.5C348.9,147.6,349.1,147.5,349.3,147.3z"/>
					<path id="XMLID_244_" class="st2" d="M313.5,183.1c-0.4,0.3-0.6,0.3-0.9,0.8c0.1,0,0.1,0,0.2-0.1
						C312.9,183.6,313,183.4,313.5,183.1z"/>
					<path id="XMLID_243_" class="st2" d="M300.8,195.8c0.1,0,0.2-0.1,0.4-0.1c0.1-0.1,0.3-0.3,0.4-0.4L300.8,195.8z"/>
					<path id="XMLID_242_" class="st2" d="M58.4,446.6c-0.4,0.1-0.8,0.1-1.1,0.1C57.9,446.9,56.2,448.9,58.4,446.6z"/>
					<path id="XMLID_241_" class="st2" d="M486.8,16.1c0.1,0.2,0,0.4-0.1,0.6c0.1-0.2,0.3-0.3,0.4-0.5
						C487,16.2,486.9,16.1,486.8,16.1z"/>
					<path id="XMLID_240_" class="st2" d="M317.7,188.3l-2.1,1.9C316.2,189.8,316.9,189,317.7,188.3z"/>
					<path id="XMLID_239_" class="st2" d="M149.7,355.1l-0.4,0.5C149.5,355.5,149.7,355.3,149.7,355.1z"/>
					<path id="XMLID_238_" class="st2" d="M309.6,196.4c-0.6,0.2-1.1,0.4-1.6,0.7c0,0.1-0.1,0.3-0.1,0.4L309.6,196.4z"/>
					<path id="XMLID_237_" class="st2" d="M57.3,446.6C57.3,446.6,57.3,446.6,57.3,446.6C57.3,446.6,57.3,446.6,57.3,446.6z"/>
					<path id="XMLID_232_" class="st2" d="M45.4,461.4c1.9-1.9,0.1-1.7,0.1-2.5c2.1-2.5,1.6-0.5,2.8-0.9c1.2-1.6,1.6-3.5,2.7-4.5
						c0.2,0,0.5-0.1,0.4,0.3c0.9-2.1,4.5-4.5,5.5-7.1c0.2-0.1,0.3-0.1,0.4,0c-0.7-0.1-1.1-0.5-1.3-0.8c0.9-0.9,1.1-2.1,1.9-1.9
						c-0.5,0.5-0.4,0.8-0.5,1.2l0.7-1.1c1.6-0.1-1,1.5-0.4,2c1.5-2,3-4.7,4.5-5.8c1,0.4-2.9,3.4-0.5,2.2l-2.4,1.8
						c2.7-0.5-1.4,1.2,1.3,0.9c3-2.5,2.7-3.4,5.7-6c0.2-1-0.8-0.4-0.6-1.4c3.2-4.6,4.9-1.3,6.8-5.1c0.3-1.2-0.4-2.4,2.2-4l0.1,1.5
						c2.7-2.6,0.4-2.7,3.7-4.9c-0.2,0.8-1.8,2.4-1.3,2.1c2.5-1.2,0.8-1.7,2.2-3.1l1,0.4c2.7-3,5.3-6.6,8.3-9.9
						c0,0.4-0.3,1.2,0.7,0.6c3.6-4.3,8.6-8.4,12.8-11.8l0.8-2.1c0.3-0.3,0.9-0.3,0.7,0.1c1.7-1.3-0.3-0.5,0.2-1.4
						c0.8-0.9,1.5-0.8,1.1,0c2.1-3.2,6.4-8.6,9.8-10.7l-0.4,0.7c2.4-1.9,1.2-3.7,3.7-5.1l-0.3,0.5c5-4.4,9.6-10.2,14.1-12.8
						c-0.2-1.6,5-4.2,4.1-5.8c3.3-2.1,2.8-1.1,6.9-4.4c1.1-0.9,0.7-2.3,1.8-3.7l0.7,0.6l1-2.4l1.7-0.1l1-1.3
						c-0.5,0.4-1.3,0.7-1.4,0.4c1.5-2.1,4.9-4,5.3-3.7l3.8-4.9c0.2,0.4-0.5,1.2-0.9,1.9c1.6-3,1.1,0.3,2.6-2.5
						c-0.4,0.1-0.2-0.5-0.3-0.7c1.4-0.7,3.8-3,5.4-5l0.1,0.8c3.3-3.1,6.5-7,10.1-10.5c-1.5,1.1-2,0-1-1.1l1.1,0.3
						c0.3-1.1-1.4,0.8-0.5-1.1c1.4-1.3,1.7-0.1,1.1,0.9l1.4-1.9c0.3,0.1,0,0.6,0.2,1c0.2-1.1,3.5-2.1,3.7-3.8l0.3,0.1
						c3.6-3.6,5-5.4,7.9-8.4c-0.5-0.7,0.7-1.7,1.1-3c2.3-2,5.2-3.9,7.7-6.5c1.5-2.1,0-1,0.5-2.2c0.7,0.4,3.2-2.2,2.3-0.5
						c3-3.2,3.9-4.1,7.3-8.4c-0.6,0.2-1.2,0.6-1.2,0.2c0.6-0.8,1.9-1.4,2-1l-0.1,0.2c3.6-5.2,11.8-8.6,14.1-13.2l-0.1,0.3l3.1-4.2
						c1.8-1.6-0.6,1.4,1,0.5c3-4.8,6.3-6.1,9-9.9c4.1-0.9,8.8-9,13.2-11.4l-0.6-0.2c0.5-1.2,1.3-0.8,2-1.4c-0.4-0.2-1.3,0.6-0.9-0.1
						c6.9-7.9,15.8-14.7,23.8-22c2.9-2.7-0.4-3.5,4-6.1l-0.3,1.7c4.8-6.4,11.5-11.4,16.3-17.6c-0.2,0.5,0,0.7-0.5,1.2
						c1.7-0.6,4.3-4.3,3.9-4.7c0.9-0.8,0.6,0.2,1.3-0.1c1.5-0.9,2.3-3.6,3.4-3.7c0.2,0-0.2,0.5-0.3,0.7c0.5-1,3.6-3.5,2.3-3.3
						c2.3-1.8,3.7-4.2,5.7-5.5c0.4-1.7,3.8-3.2,3.2-4.5c0.8,1.1,4.4-2.8,5.2-4.6c-0.1,0.7,1.4-0.8,1.3,0.1c1.5-1.5,2.7-3,1.9-3.3
						c3.9-1.6,4.6-6.4,7.6-6.5c3.9-4.9,7.6-9.4,11.4-13.5c0.8,1.1-4.3,4.5-3.1,5.3c3.4-4.2,4.7-7.2,8.7-10.7c1.1-0.8-0.1,1-0.3,1.5
						c3.4-4.2,7.4-7.2,10.2-11.1c0.1,0.1-0.2,0.6-0.5,1c0.6-0.7,1.7-1.4,1.2-1.8l-0.5,0.8c-1.7,0.4,1.3-3.9,1.1-4.4
						c0.1,2.4,3.6-3,3.4,0.4c0.4-0.5,0.7-1.3,0.3-1.5c0.7-0.6,1.1-0.6,0.8,0.4c2.1-2.6,0.8-2.2,3-4.4c0.2,0.2-0.1,0.7-0.1,1.2
						c0.7-1.5,1.4-3,3.3-4.6c0,0.2,0.4,0.2-0.1,0.7c3-3.2,4.2-6.4,8-9.4c-0.1,1.9,1.5-0.9,2.4-0.2l1.6-2.1l-1.1,0.4
						c1.6-1.6,2.5-3.6,4.1-4.7l-0.9,1.5l2.9-3.2l-2,1.4c1.2-2-1.2-0.8,1.2-2.7c-0.4,0.5,1.6-1.6,2.9-2c0,0,0,0,0,0
						c0.5-1,1.1-2.1,2.5-3.1c0.6-0.1,0.6,1.1,1,1.1c0.1-1.4,3.6-3.9,3.9-5.6c-0.2,0.5,0.2,0.9,0.4,0.9l0.1-1.2
						c0.9-0.6,1.1-0.6,1.3-0.1c2.3-2.1-1.7-0.3,1.4-2.5c-0.2,0.3,0,0.2-0.3,0.7c2.9-2.4,4.8-5.5,7.5-7.7c1.5,0.1-1.9,2.3-0.4,2.2
						c3.4-3.7,6.4-8.3,10-11.5l-0.7,0.5c-0.7-1.6,3.1-2,4.3-4.2c-0.3,0.5,0.1,1.2,0.1,0.9c2.5-2.2,4.5-5.1,7.7-9l-0.2,0.7
						c1.6-1.1,3.8-3.5,5.4-4.8c0.2-0.7,1.1-1.5,0.1-1.4c6.2-2.9,7.9-9.6,13.3-12.4c-0.5,0.5-0.9,1.4-0.5,1l3.2-3.7
						c-0.8-0.2-0.8,0.2-1.9,0.5c0.1-0.7,0.9-1.9,1.8-2.8c-1.2,1.9,0.8,0.8,1.7,0.4c-0.3,0-0.2-0.4-0.4-0.5c2.7-0.9-0.7-1.3,2.4-3.2
						l0.1,0.4c0.8-1.1,1.3-2.3,2.4-3.2c1,0.2-0.7,1.3-0.3,1.8c1.4-1.4,1.7-3.8,3.5-4.5c-0.4,0.8-1.3,1.6-1.7,2.4c2-0.7,2-1,3.2-2
						l-0.1,0.1l2.7-2.1l-0.8,0.4c0.3-3.2,3.3-3.8,4.7-7.2c-1.4,3.2,0.2,0.9,0.6,1.7c0.8-0.4,1.9-1.1,1.8-0.7
						c0.6-1.6,2.3-1.5,3.1-3.8c0.3,0.1,1.2-1.2,1.5-0.4c1.3-1.6-0.7,0-0.8-0.4c1.5-2.9,6.1-4.4,8.4-8.6c2.4-3.2,2.2-4.4,4.4-7.3
						c1.2-0.5,0,1.5,0,1.5c1.7-1.1,2.7-2.2,3.8-3.8c-0.1,0.4,0.3,0.3,1,0.2c1-1.1,0-1.5,1.7-2.6c0,0.5,0.1,1.1-0.2,1.9
						c1.1-1.4,1.9-3.1,3-4.5c0.7,0-0.2,1.3-0.5,2c1.3-1.6,3.4-4.1,3.3-5.1l-1.1,0.7c0.5-0.6,0.8,0.2,0.5,0.7c-0.8,1.7-2,1.6-2.3,1.5
						l0.8-1.1c-2.2-0.3-3.5,3.9-5.4,5.7l-0.1-1.7l-1.2,2.6c-0.6,0.2-1.4,0-0.6-1.1c-1.8,0.9-0.9,1.5-2.5,2.2c-0.2,0.1-0.2,0-0.1-0.2
						l-1,1.6c0.1-0.4-0.8-0.4,0.1-1.1c-2.8,1.8-3.1,4.4-4.7,4.6l0.1-0.2c-2.9,3.5,0.3,1-1.3,4.2l-3.2,0l0.3,1
						c-0.4,0.3-1.1,0.9-1.2,0.5c-0.8,1.7,0.5,0.1,0.2,1.2c-2.2,1-4.2,4.7-5.6,4c-0.1,1.1,1.9-1.2,0.5,0.9c-1.6-0.6-1.8,2.2-3.8,3.1
						c-0.1-1,1.6-2.1-0.4-1.2c0.1,1.9-3.1,2.7-4.1,4.1c0.7,0.8-2.4,3-4.2,5.4c-0.1-0.4-4.3,3.5-6.6,5.1l-0.1-0.2
						c0.4,1.2-1.7,3-3,4.6c-0.4-0.5-0.3-1,0.2-2l-1.4,1.4c-0.1,0.6-0.4,1.1-1.2,2.1l-0.2-0.9c-1.8,1.9-3,4.3-5.7,6.3
						c0.4,0.7,3.4-0.3,1.3,2.5c-0.4-0.2-1-0.6-0.5-1.4c-0.2,0.3-0.5,1-1.1,1.3l0.5-1.5c-1.3,0.8-0.1,1-1,1.8
						c-0.4-0.4-0.9,0.3-1.1-0.1c0.2-0.3,0.9-0.6,1.1-1.1c-1,0.9-2.4,1.8-3.1,1.9c0.3,0.2,0.6,0.6-0.1,1.3c-1.8,1.8-1.1,0.1-2.4,1
						c-0.1,0.7-1.6,1.6-1,2.2c-0.5,0.5-0.9,0.3-1.3,0.4c-0.7,1.2-4.3,4.5-2.6,4.1l0.3-0.2c0,0.1-0.1,0.1-0.1,0.2c0,0,0,0,0,0l0,0
						c-2.5,3.7-6.8,6.1-9.6,9.4l-0.2-0.2c-1.6,2.1-3.9,4.2-4.8,6c-0.5,0.5-1.7,0.9-1.7,0.4c-1.2,1.6-1.2,1.9-3.5,3.6
						c1-1.8-0.8,0.2,1.2-1.7c-2,1.6-2.7,1.7-4.1,4.2c0.1-1.2-2,0.7-2.7,1.7l1.7-0.9c-0.9,1-1.8,1.8-2.7,2.7l-0.2-1.2
						c-4.6,2.9-5.2,8.2-9.5,9.6c-0.5,1.5,2.4-1.7,2.1-0.2c-1.8,1.6-4.6,2.4-5.1,2.9c-2.7,1.9-1.2,3.2-3.9,5.4
						c0.6-0.1,1.5,0.3-0.1,2.4c-1.8,1.6-3.2,1-2.3-0.2c0.4-0.4,0.7-0.5,0.7-0.4c0.5-0.6,1.1-1.5,0.1-1.1l0,0.5c-1.1,0.6-3.4,3-3.3,2
						c-1.1,1.5-0.1,1,0.9,0.1c-2.6,1.8-3.4,3.4-5.9,5.4c0.5-0.2,1.1-0.3,0.8,0.1c-3.6,3-1,1.9-3.1,4.3c-1.7,0.9-0.5-1.4-2.4,1.2
						c-1.6,1.1-1-0.4-0.6-1.1c-1.6,2.5-4.2,3.5-5.4,4.6l0.9-1.3c-0.5,0.8-1.1,1.3-1.6,1.8l1.1-0.1c-0.7,0.5-1.3,1.1-1.5,0.9
						c-0.3,1,1.3,0.3,0.5,2.1c-1.1,0.6-2.3,2.9-3.3,2.5c2.9-2.4-1-0.4,1.2-2.7c-0.4,0.5-0.9,1-1.6,1.6c-0.2,0,0-0.2,0.1-0.4
						c-3.2,2-0.4,1.9-3.1,4.6c0-0.7-1.3-0.1-1.7,0.4c1.1-1.1,1.1,0.1,0.4,1.4c-2,1.4-1.6,2.1-2.5,2.9l1.2-0.9c0,0.7-0.9,1.5-1.9,2.8
						c-0.4-0.2,0.9-1.3,0.3-1c-0.7,2-3.7,2.3-5,4.6c-1.1,0.6-0.8-0.6-1.7-0.1c-1.6,2.5-2.7,1.7-4.5,4.3c1.1-0.1,1.1-0.3,0.1,1.7
						l3.2-3.9l-1.5,3c1.1-1.1,1.9-2.6,2.7-3.1c-0.7,1.5-0.7,1.3,0.2,1.2c-2.2,0.7-2.5,3.3-4.7,4.5l-1.2-1.3c-3.1,2-3.9,5.2-7.5,8.2
						l1.3-0.8c0.1,0.9-2,2.1-2.8,3.4c-0.3-0.5-1.1,0-1.9,0.2c0.4,0.3-2.4,2.4-1.9,3.5l-2,0.9c-2.9,2.4-1.9,4.2-4.6,6.7
						c0.3-1.2-1.1-0.4,0.2-2.4c-0.9,0.9-1.7,1.5-1.4,1.8c-0.8,0.2-1.8,2.9-3,3.3c-0.2,0.5,0.1,1.1-0.9,2c-0.2,0-0.2-0.2-0.2-0.2
						c0.2,0.2-1.2,1.8,0.1,1.4c-3.9,1.3-7.3,7.5-10.7,8.6c-1.7,2-3.8,4.4-5.5,6.1c0-0.2-0.2-0.2,0.2-0.5c-2.7,2-0.2,2.6-3.3,4.9
						c-2,0.7,1-1.8-0.1-1.2c-1.7-1-3,3.4-5.6,4.4l0.4-0.5c-1.8,0.9-2.8,3.9-5.2,6c0,0,0-0.2-0.2-0.2c-0.8,2.2-3.5,5.4-5.5,7.7
						c0.1-1.2,0.7-1.3-0.3-1.4c-0.9,1,1.2,0.6-0.6,2.7c-0.9,0.3-2.6,1.5-3.3,1.1l1.8-1.8c-1.7,0.2-2.3,2.4-3.4,3.2l-0.2-0.5
						c-2.7,2.9-1.9,3.8-4.9,6.7l0.6-0.1c-0.8,2.5-1.8,0.9-2.9,3.2l-1.3-0.3c-0.9,1.3-3,4.6-4.8,6.7c0.5-1.7,2.4-4.3,3.5-6.1
						c-1.1,1.1-3.6,3.7-3.7,4.7c0.4-0.5,0.7-1.3,1.2-1.6c-0.7,2-2.1,4-4.2,6.1c-1.2-2-6,5.1-8.8,5.4c-3.2,4.4-7.7,7.2-12,11.7
						c2.8-0.3-1.2,1.3,0.3,2.3c-0.9,1.1-1.4,1.5-1.5,1.5l-3.9,2.3c-1.1,0.4,0.7-1.3,0.3-1.5c-2.3,2.1-1.5,0.4-3.3,1.5
						c0.8,0.2-0.1,1.4-1.6,2.5l2.4-1.2c-2.4,3.8-3.8,1.6-6.3,5.5l0.6-1.4c-1.4,1.9-6,6-6.5,8.6c-0.4,0.1-1.2,0.2-0.6-0.6
						c-4,3.7-7.5,9.7-11.2,12.1l0-0.6c-0.6,0.8-0.7,1.9-1.9,2.4c-0.1-0.2,0-0.6-0.4-0.3c-0.3,0.5-1.4,2.5-2.5,3.2l0.5-1.2
						c-4.2,3.4-4.9,6.7-7.9,10c-0.9-0.9-4.2,1.7-5.8,3.1l-0.1-0.2c-4.5,4.3-6.7,8.2-10.4,12.7c-3.5,1.5-9,8.1-13.6,11.6
						c0.8-0.5,0.6,0.8,0,1.6c-1.1,0.8-2,3.3-2.7,2.3l0.4-0.3c-1.6-0.1-3.3,2.1-4.8,3.6l0.9,1.4c-5.6,2.4-9.9,11.1-13.5,11.8
						c-0.7,1.2-1.9,2.4-2.6,3.7l-0.5-0.7c-2.8,2.5-4.2,3.8-7.4,7.2l0.2-1.1c-1.9,1.8-0.6,4.1-2.3,5.8l-1.4-0.4
						c-3.2,3.3-7.3,5.8-9.7,9.8c-0.1-0.2-0.2-0.5,0.2-1.1c-1.6,1.5-6.5,5.3-4.7,6c-0.8-0.8-3.4,3.3-4.8,5.4l-0.3-0.9
						c-0.7,2.2-0.6,2.5-2.4,4.8c-0.6,0.4-0.9,0-0.1-0.5c-1.9,1.3-0.7,1.8-3,3.5l0.4-1.1c-1.7,1.6-1.4,1.7-1.9,3.1
						c-0.8,1.3-3.3,3-4.1,2.8c0.1,0.6-0.4,1.9-1.5,2.7c-0.3-0.1-0.1-0.6,0-0.8c-3.2,2.4-3.5,4.9-6,6.2c-0.2-0.2-0.5-0.1-0.7,0
						c2.3-2.2,4.1-4,4-3.8c-0.5-0.5-2.4,1.2-1.8-1c-1,1.9-2.6,5.2-4.6,6.7c-0.1,0-0.3,0.1-0.4,0l0.1-0.2c-0.5,0.4-0.8,0.8-1,1.2
						c-0.7,0.5-1.1,0.8-1.6,1.3c-0.7-0.2-2.3,1.8-3.2,2.7c0.7,0.5-0.6,1.6,1,1c-0.2,0.1,0.1-0.2,0.7-0.9c0.1-0.2,0.3-0.3,0.3-0.4
						c0,0,0,0.1,0,0.1c0.6-0.6,1.3-1.4,2.2-2.3c-0.4,1-0.9,2-2.2,2.7c-0.1,0.8-0.2,1.7-0.3,2.2c-2.1,0.4-4.9,2.3-5.7,2.1
						c-2.4,3.1-6.3,6.7-6.9,9.5c-0.6,0.9-1.2,0.6-1.7,0.7c0.3-0.6,0.9-1.1,1-1.5c-1.3,1.9-4.5,4.7-4.1,5.9c-2.3,1.6,0.4-1.8-2.2,1
						l0.1-0.6c-6.6,4.1-6.7,10.7-14.2,15c0.5-0.3,0.8-0.5,1-0.4c-7.4,6-13.2,14.5-21,20.1c-2.1,1.7-1.8,2.4-2.6,3.9l-1-0.2l-1.2,2.7
						c-2.3,3.3-6.4,3.3-8.9,7.8l0.9,0c-1.4,1.2-3.8,4.3-4.1,3.6c-0.1,0.2,0,0.9-0.7,1.1l-0.4-0.3l-2.5,3.7c-2.7,2.2-1-1.7-4.5,1.8
						c-1.2,1.4-2.8,4.7-2,4.4c0.5-0.5,1.6-1.1,1.9-0.8l-1,1.4c0.8,1.2,0.9,3.1,4.5,0.9l1.4-2.7l1.1-0.2l-1.7,1.8
						c1.4-0.5,1.7-1.5,2.1-2.5c0.4,0.1,0.9,0,1.4-0.3l1.1-3c0.6,0.1-0.1,1.7,1.4,0.5c0.5-1.4-1.8,0-0.5-1.8c1.4-0.5,1.5,0.1,2.3-1.4
						c0.4,0.1,0.3,0.5,0,1.1c0.7-1.3,2.6-2.8,2.6-3.9c1.6-0.5,3.3-3.6,4.2-2.6c0.1-0.5,1.1-2.5,2-3.5c-0.6,2.8,3.6-3.5,4.3-1.8
						c0.3-2.3,4.2-5.1,5.9-7.9c0,0.2-0.1,0.6-0.4,0.8c1.4-1.2,2-1.3,3-1.9c-0.7-1,1.1-3.2,1.7-4.7c2.4-0.8,0,1.9,1.3,2.2
						c-0.8-0.6,2-3.4,0.9-3.4c1.7-0.7,1.3-0.8,2.6-0.7c-0.8-1.2,0.9-1.3,1.3-2.9c2.2-1.2,1.4,0.5,3-1.7
						C46.7,459.3,45.4,461.4,45.4,461.4z M88.6,414.6C88.6,414.6,88.6,414.6,88.6,414.6c-0.4,0.4-0.7,0.8-0.9,1
						C87.9,415.3,88.2,415,88.6,414.6z M92.4,410.8c-0.5,0.4-1.1,1-1.7,1.6c-0.3-0.1-0.4-0.4,0-0.8
						C90.7,411.9,91.7,411.1,92.4,410.8z M80.3,414.6c0.5-0.7,0.8-0.8,1-0.7c-0.3,0.3-0.6,0.6-1,1.1c0,0,0,0.1,0,0.1
						C80.3,415,80.2,414.8,80.3,414.6z"/>
					<path id="XMLID_231_" class="st2" d="M80,416.5c-0.1,0.1-0.1,0.2-0.2,0.3c0.2-0.1,0.3-0.1,0.5-0.2c0-0.1,0-0.3,0-0.4
						C80.2,416.3,80.1,416.4,80,416.5z"/>
					<path id="XMLID_230_" class="st2" d="M423.9,74.4L423.9,74.4c0,0,0.1,0,0.2,0C423.9,74.4,423.9,74.4,423.9,74.4z"/>
					<polygon id="XMLID_229_" class="st2" points="145.8,359.6 145.6,359.5 145.4,360 					"/>
					<path id="XMLID_228_" class="st2" d="M446.8,55.6c0.1,0,0.2,0,0.4-0.1C447.1,55.4,447,55.5,446.8,55.6z"/>
					<path id="XMLID_227_" class="st2" d="M455.9,46.7l1.5-1.1C456.7,46.1,456.2,46.4,455.9,46.7z"/>
					<path id="XMLID_226_" class="st2" d="M463.1,40.1c0-0.2-0.1-0.3-0.1-0.4c0,0,0,0,0,0L463.1,40.1z"/>
					<path id="XMLID_225_" class="st2" d="M353.8,150.8c-0.1,0.1-0.2,0.2-0.2,0.3C353,151.9,353.4,151.4,353.8,150.8z"/>
					<path id="XMLID_224_" class="st2" d="M385.1,116.7c-0.2,0.5-0.5,0.9-0.8,1.3C385,117.5,385.4,117,385.1,116.7z"/>
					<path id="XMLID_223_" class="st2" d="M317.9,188.1C317.9,188.1,317.9,188.1,317.9,188.1c-0.1,0.1-0.2,0.1-0.2,0.2L317.9,188.1z
						"/>
					<path id="XMLID_222_" class="st2" d="M382.8,119.5c0.7-0.5,1.2-1,1.5-1.5C383.8,118.5,383.2,119,382.8,119.5z"/>
					<path id="XMLID_221_" class="st2" d="M493.4,10.3l0.4-0.3c0,0-0.1-0.1-0.1-0.1L493.4,10.3z"/>
					<path id="XMLID_220_" class="st2" d="M493.7,9.9l0.3-0.4C493.8,9.6,493.7,9.8,493.7,9.9z"/>
					<path id="XMLID_219_" class="st2" d="M494.6,8.5L494,9.5C494.2,9.2,494.6,8.9,494.6,8.5z"/>
					<path id="XMLID_218_" class="st2" d="M483.9,19.2l0.1,0.3C484.1,19.5,484,19.3,483.9,19.2z"/>
					<path id="XMLID_217_" class="st2" d="M481.2,22.1c0.7-0.6,2.1-1.2,2.9-2.3l-0.1-0.3C483.9,20.3,481.5,21.1,481.2,22.1z"/>
					<path id="XMLID_216_" class="st2" d="M466.9,31l2.5-2.2c-0.6,0.2-1.5,0.4-0.5-0.7C465.3,30.4,470.1,28.1,466.9,31z"/>
					<path id="XMLID_215_" class="st2" d="M459.3,37.9c1.1-1.4-0.3-0.3-0.4-0.5C458.4,38.4,458.2,38.7,459.3,37.9z"/>
					<path id="XMLID_214_" class="st2" d="M407.1,90.2l-0.4-0.7C405.8,90.6,406.8,89.8,407.1,90.2z"/>
					<polygon id="XMLID_213_" class="st2" points="399.9,103 401.2,102.4 401.1,101.5 					"/>
					<polygon id="XMLID_212_" class="st2" points="390.1,105 390.4,104.5 389,106.4 					"/>
					<path id="XMLID_211_" class="st2" d="M302.5,193.1l1,0.4C304,192.7,303.4,191.8,302.5,193.1z"/>
					<path id="XMLID_210_" class="st2" d="M265.3,231.6c-0.7,0.1-2,0.9-2.4,1.9C263.8,232.7,264.9,232.2,265.3,231.6z"/>
					<polygon id="XMLID_209_" class="st2" points="150.5,344.2 151,343.3 149.8,344.9 					"/>
				</g>
			</g>
		</g>
	</g>
</g>
<g id="XMLID_62_">
	<line id="XMLID_198_" class="st0" x1="500" y1="500" x2="0" y2="0"/>
	<g id="XMLID_136_">
		<g id="XMLID_63_">
			<g id="XMLID_64_">
				<g id="XMLID_65_">
					<path id="XMLID_66_" class="st1" d="M1.4-1.4C1-1.5,0.7-0.9,1.5-0.3l1.2-0.2L1.4-1.4z"/>
					<path id="XMLID_67_" class="st1" d="M5,4.8c1.2,0.5,2.8,0.9,2.9-0.3C6.3,4.3,6.4,3.8,4.7,3.7C3.9,3.1,3.7,2.2,4,2.1
						C3.6,2,3.1,0.8,2.2,0.8c0.4,1.5,1.6,2.7,3.3,3.5C5.6,4.8,5.2,4.7,5,4.8z"/>
					<path id="XMLID_68_" class="st1" d="M74.8,76.8l-0.4-0.5C74.5,76.4,74.6,76.6,74.8,76.8z"/>
					<path id="XMLID_75_" class="st1" d="M118.3,121.1c-0.4-0.3-0.6-0.4-0.6-0.3C118.1,121,118.4,121.2,118.3,121.1z"/>
					<path id="XMLID_76_" class="st1" d="M125.1,129.4c-0.1-0.2-0.3-0.3-0.4-0.5C124.8,129.1,124.9,129.3,125.1,129.4z"/>
					<path id="XMLID_77_" class="st1" d="M74.8,76.8l1,1.4C76.1,78,75.3,77.4,74.8,76.8z"/>
					<path id="XMLID_78_" class="st1" d="M16.5,12.9c-0.3-0.2-0.5-0.4-0.8-0.5c0.2,0.2,0.5,0.3,0.7,0.5
						C16.4,12.9,16.4,12.9,16.5,12.9z"/>
					<path id="XMLID_79_" class="st1" d="M54.9,58l-0.4-0.4c-0.2,0-0.4,0-0.6,0L54.9,58z"/>
					<path id="XMLID_80_" class="st1" d="M39.9,43.2c0.3,0.4,1-0.1,1.4-0.2c-0.4,0.1-0.8-0.1-1.1-0.3C40,42.8,40,42.9,39.9,43.2z"/>
					<path id="XMLID_81_" class="st1" d="M17.4,18.6l-0.5-0.3C17,18.3,17.2,18.5,17.4,18.6z"/>
					<path id="XMLID_82_" class="st1" d="M65.4,68.7c-0.1,0.1-0.1,0.2-0.1,0.3C65.4,69,65.4,68.9,65.4,68.7z"/>
					<path id="XMLID_83_" class="st1" d="M485.6,480c-0.1,0-0.1,0.1-0.1,0.1C485.6,480.1,485.7,480.1,485.6,480z"/>
					<path id="XMLID_84_" class="st1" d="M499.8,500.2l-0.3-0.2c-0.1,0.1-0.3,0.2-0.4,0.3L499.8,500.2z"/>
					<path id="XMLID_85_" class="st1" d="M138,143.9C138,143.8,138,143.8,138,143.9C137.6,143.5,137.8,143.7,138,143.9z"/>
					<path id="XMLID_86_" class="st1" d="M264.5,269.4c-0.9-2,3,1.6,1.5-1.1C265.9,268.8,263.1,267.3,264.5,269.4z"/>
					<path id="XMLID_87_" class="st1" d="M16.8,13.3c0.2,0.2,0.4,0.4,0.6,0.6C17.1,13.6,16.9,13.4,16.8,13.3z"/>
					<path id="XMLID_88_" class="st1" d="M266,268.3C266,268.3,266,268.3,266,268.3l-0.2-0.3C265.9,268.2,265.9,268.2,266,268.3z"/>
					<path id="XMLID_89_" class="st1" d="M170,175.1c0-0.2,0-0.4-0.1-0.6C169.9,174.6,169.9,174.8,170,175.1z"/>
					<path id="XMLID_90_" class="st1" d="M147.3,150.7l0.5,0.7C147.6,151.1,147.5,150.9,147.3,150.7z"/>
					<path id="XMLID_91_" class="st1" d="M183.1,186.5c0.3,0.4,0.3,0.6,0.8,0.9c0-0.1,0-0.1-0.1-0.2
						C183.6,187.1,183.4,187,183.1,186.5z"/>
					<path id="XMLID_92_" class="st1" d="M195.8,199.2c0-0.1-0.1-0.2-0.1-0.4c-0.1-0.1-0.3-0.3-0.4-0.4L195.8,199.2z"/>
					<path id="XMLID_93_" class="st1" d="M446.6,441.6c0.1,0.4,0.1,0.8,0.1,1.1C446.9,442.1,448.9,443.8,446.6,441.6z"/>
					<path id="XMLID_94_" class="st1" d="M16.1,13.2c0.2-0.1,0.4,0,0.6,0.1c-0.2-0.1-0.3-0.3-0.5-0.4C16.2,13,16.1,13.1,16.1,13.2z"
						/>
					<path id="XMLID_95_" class="st1" d="M188.3,182.3l1.9,2.1C189.8,183.8,189,183.1,188.3,182.3z"/>
					<path id="XMLID_96_" class="st1" d="M355.1,350.3l0.5,0.4C355.5,350.5,355.3,350.3,355.1,350.3z"/>
					<path id="XMLID_97_" class="st1" d="M196.4,190.4c0.2,0.6,0.4,1.1,0.7,1.6c0.1,0,0.3,0.1,0.4,0.1L196.4,190.4z"/>
					<path id="XMLID_98_" class="st1" d="M446.6,442.7C446.6,442.7,446.6,442.7,446.6,442.7C446.6,442.7,446.6,442.7,446.6,442.7z"
						/>
					<path id="XMLID_99_" class="st1" d="M461.4,454.6c-1.9-1.9-1.7-0.1-2.5-0.1c-2.5-2.1-0.5-1.6-0.9-2.8c-1.6-1.2-3.5-1.6-4.5-2.7
						c0-0.2-0.1-0.5,0.3-0.4c-2.1-0.9-4.5-4.5-7.1-5.5c-0.1-0.2-0.1-0.3,0-0.4c-0.1,0.7-0.5,1.1-0.8,1.3c-0.9-0.9-2.1-1.1-1.9-1.9
						c0.5,0.5,0.8,0.4,1.2,0.5l-1.1-0.7c-0.1-1.6,1.5,1,2,0.4c-2-1.5-4.7-3-5.8-4.5c0.4-1,3.4,2.9,2.2,0.5l1.8,2.4
						c-0.5-2.7,1.2,1.4,0.9-1.3c-2.5-3-3.4-2.7-6-5.7c-1-0.2-0.4,0.8-1.4,0.6c-4.6-3.2-1.3-4.9-5.1-6.8c-1.2-0.3-2.4,0.4-4-2.2
						l1.5-0.1c-2.6-2.7-2.7-0.4-4.9-3.7c0.8,0.2,2.4,1.8,2.1,1.3c-1.2-2.5-1.7-0.8-3.1-2.2l0.4-1c-3-2.7-6.6-5.3-9.9-8.3
						c0.4,0,1.2,0.3,0.6-0.7c-4.3-3.6-8.4-8.6-11.8-12.8l-2.1-0.8c-0.3-0.3-0.3-0.9,0.1-0.7c-1.3-1.7-0.5,0.3-1.4-0.2
						c-0.9-0.8-0.8-1.5,0-1.1c-3.2-2.1-8.6-6.4-10.7-9.8l0.7,0.4c-1.9-2.4-3.7-1.2-5.1-3.7l0.5,0.3c-4.4-5-10.2-9.6-12.8-14.1
						c-1.6,0.2-4.2-5-5.8-4.1c-2.1-3.3-1.1-2.8-4.4-6.9c-0.9-1.1-2.3-0.7-3.7-1.8l0.6-0.7l-2.4-1l-0.1-1.7l-1.3-1
						c0.4,0.5,0.7,1.3,0.4,1.4c-2.1-1.5-4-4.9-3.7-5.3l-4.9-3.8c0.4-0.2,1.2,0.5,1.9,0.9c-3-1.6,0.3-1.1-2.5-2.6
						c0.1,0.4-0.5,0.2-0.7,0.3c-0.7-1.4-3-3.8-5-5.4l0.8-0.1c-3.1-3.3-7-6.5-10.5-10.1c1.1,1.5,0,2-1.1,1l0.3-1.1
						c-1.1-0.3,0.8,1.4-1.1,0.5c-1.3-1.4-0.1-1.7,0.9-1.1l-1.9-1.4c0.1-0.3,0.6,0,1-0.2c-1.1-0.2-2.1-3.5-3.8-3.7l0.1-0.3
						c-3.6-3.6-5.4-5-8.4-7.9c-0.7,0.5-1.7-0.7-3-1.1c-2-2.3-3.9-5.2-6.5-7.7c-2.1-1.5-1,0-2.2-0.5c0.4-0.7-2.2-3.2-0.5-2.3
						c-3.2-3-4.1-3.9-8.4-7.3c0.2,0.6,0.6,1.2,0.2,1.2c-0.8-0.6-1.4-1.9-1-2l0.2,0.1c-5.2-3.6-8.6-11.8-13.2-14.1l0.3,0.1l-4.2-3.1
						c-1.6-1.8,1.4,0.6,0.5-1c-4.8-3-6.1-6.3-9.9-9c-0.9-4.1-9-8.8-11.4-13.2l-0.2,0.6c-1.2-0.5-0.8-1.3-1.4-2
						c-0.2,0.4,0.6,1.3-0.1,0.9c-7.9-6.9-14.7-15.8-22-23.8c-2.7-2.9-3.5,0.4-6.1-4l1.7,0.3c-6.4-4.8-11.4-11.5-17.6-16.3
						c0.5,0.2,0.7,0,1.2,0.5c-0.6-1.7-4.3-4.3-4.7-3.9c-0.8-0.9,0.2-0.6-0.1-1.3c-0.9-1.5-3.6-2.3-3.7-3.4c0-0.2,0.5,0.2,0.7,0.3
						c-1-0.5-3.5-3.6-3.3-2.3c-1.8-2.3-4.2-3.7-5.5-5.7c-1.7-0.4-3.2-3.8-4.5-3.2c1.1-0.8-2.8-4.4-4.6-5.2c0.7,0.1-0.8-1.4,0.1-1.3
						c-1.5-1.5-3-2.7-3.3-1.9c-1.6-3.9-6.4-4.6-6.5-7.6c-4.9-3.9-9.4-7.6-13.5-11.4c1.1-0.8,4.5,4.3,5.3,3.1
						c-4.2-3.4-7.2-4.7-10.7-8.7c-0.8-1.1,1,0.1,1.5,0.3c-4.2-3.4-7.2-7.4-11.1-10.2c0.1-0.1,0.6,0.2,1,0.5
						c-0.7-0.6-1.4-1.7-1.8-1.2l0.8,0.5c0.4,1.7-3.9-1.3-4.4-1.1c2.4-0.1-3-3.6,0.4-3.4c-0.5-0.4-1.3-0.7-1.5-0.3
						c-0.6-0.7-0.6-1.1,0.4-0.8c-2.6-2.1-2.2-0.8-4.4-3c0.2-0.2,0.7,0.1,1.2,0.1c-1.5-0.7-3-1.4-4.6-3.3c0.2,0,0.2-0.4,0.7,0.1
						c-3.2-3-6.4-4.2-9.4-8c1.9,0.1-0.9-1.5-0.2-2.4L126,122l0.4,1.1c-1.6-1.6-3.6-2.5-4.7-4.1l1.5,0.9L120,117l1.4,2
						c-2-1.2-0.8,1.2-2.7-1.2c0.5,0.4-1.6-1.6-2-2.9c0,0,0,0,0,0c-1-0.5-2.1-1.1-3.1-2.5c-0.1-0.6,1.1-0.6,1.1-1
						c-1.4-0.1-3.9-3.6-5.6-3.9c0.5,0.2,0.9-0.2,0.9-0.4l-1.2-0.1c-0.6-0.9-0.6-1.1-0.1-1.3c-2.1-2.3-0.3,1.7-2.5-1.4
						c0.3,0.2,0.2,0,0.7,0.3c-2.4-2.9-5.5-4.8-7.7-7.5c0.1-1.5,2.3,1.9,2.2,0.4c-3.7-3.4-8.3-6.4-11.5-10l0.5,0.7
						c-1.6,0.7-2-3.1-4.2-4.3c0.5,0.3,1.2-0.1,0.9-0.1c-2.2-2.5-5.1-4.5-9-7.7l0.7,0.2c-1.1-1.6-3.5-3.8-4.8-5.4
						c-0.7-0.2-1.5-1.1-1.4-0.1c-2.9-6.2-9.6-7.9-12.4-13.3c0.5,0.5,1.4,0.9,1,0.5l-3.7-3.2c-0.2,0.8,0.2,0.8,0.5,1.9
						c-0.7-0.1-1.9-0.9-2.8-1.8c1.9,1.2,0.8-0.8,0.4-1.7c0,0.3-0.4,0.2-0.5,0.4c-0.9-2.7-1.3,0.7-3.2-2.4l0.4-0.1
						c-1.1-0.8-2.3-1.3-3.2-2.4c0.2-1,1.3,0.7,1.8,0.3c-1.4-1.4-3.8-1.7-4.5-3.5c0.8,0.4,1.6,1.3,2.4,1.7c-0.7-2-1-2-2-3.2l0.1,0.1
						l-2.1-2.7l0.4,0.8c-3.2-0.3-3.8-3.3-7.2-4.7c3.2,1.4,0.9-0.2,1.7-0.6c-0.4-0.8-1.1-1.9-0.7-1.8c-1.6-0.6-1.5-2.3-3.8-3.1
						c0.1-0.3-1.2-1.2-0.4-1.5c-1.6-1.3,0,0.7-0.4,0.8c-2.9-1.5-4.4-6.1-8.6-8.4c-3.2-2.4-4.4-2.2-7.3-4.4c-0.5-1.2,1.5,0,1.5,0
						c-1.1-1.7-2.2-2.7-3.8-3.8c0.4,0.1,0.3-0.3,0.2-1c-1.1-1-1.5,0-2.6-1.7c0.5,0,1.1-0.1,1.9,0.2c-1.4-1.1-3.1-1.9-4.5-3
						c0-0.7,1.3,0.2,2,0.5C11.5,8.5,9,6.4,8,6.5l0.7,1.1C8.2,7.1,8.9,6.9,9.4,7.2c1.7,0.8,1.6,2,1.5,2.3L9.8,8.7
						c-0.3,2.2,3.9,3.5,5.7,5.4l-1.7,0.1l2.6,1.2c0.2,0.6,0,1.4-1.1,0.6c0.9,1.8,1.5,0.9,2.2,2.5c0.1,0.2,0,0.2-0.2,0.1l1.6,1
						c-0.4-0.1-0.4,0.8-1.1-0.1c1.8,2.8,4.4,3.1,4.6,4.7l-0.2-0.1c3.5,2.9,1-0.3,4.2,1.3l0,3.2l1-0.3c0.3,0.4,0.9,1.1,0.5,1.2
						c1.7,0.8,0.1-0.5,1.2-0.2c1,2.2,4.7,4.2,4,5.6c1.1,0.1-1.2-1.9,0.9-0.5c-0.6,1.6,2.2,1.8,3.1,3.8c-1,0.1-2.1-1.6-1.2,0.4
						c1.9-0.1,2.7,3.1,4.1,4.1c0.8-0.7,3,2.4,5.4,4.2c-0.4,0.1,3.5,4.3,5.1,6.6l-0.2,0.1c1.2-0.4,3,1.7,4.6,3c-0.5,0.4-1,0.3-2-0.2
						l1.4,1.4c0.6,0.1,1.1,0.4,2.1,1.2L55.7,59c1.9,1.8,4.3,3,6.3,5.7c0.7-0.4-0.3-3.4,2.5-1.3c-0.2,0.4-0.6,1-1.4,0.5
						c0.3,0.2,1,0.5,1.3,1.1l-1.5-0.5c0.8,1.3,1,0.1,1.8,1c-0.4,0.4,0.3,0.9-0.1,1.1c-0.3-0.2-0.6-0.9-1.1-1.1
						c0.9,1,1.8,2.4,1.9,3.1c0.2-0.3,0.6-0.6,1.3,0.1c1.8,1.8,0.1,1.1,1,2.4c0.7,0.1,1.6,1.6,2.2,1c0.5,0.5,0.3,0.9,0.4,1.3
						c1.2,0.7,4.5,4.3,4.1,2.6l-0.2-0.3c0.1,0,0.1,0.1,0.2,0.1c0,0,0,0,0,0l0,0c3.7,2.5,6.1,6.8,9.4,9.6l-0.2,0.2
						c2.1,1.6,4.2,3.9,6,4.8c0.5,0.5,0.9,1.7,0.4,1.7c1.6,1.2,1.9,1.2,3.6,3.5c-1.8-1,0.2,0.8-1.7-1.2c1.6,2,1.7,2.7,4.2,4.1
						c-1.2-0.1,0.7,2,1.7,2.7l-0.9-1.7c1,0.9,1.8,1.8,2.7,2.7l-1.2,0.2c2.9,4.6,8.2,5.2,9.6,9.5c1.5,0.5-1.7-2.4-0.2-2.1
						c1.6,1.8,2.4,4.6,2.9,5.1c1.9,2.7,3.2,1.2,5.4,3.9c-0.1-0.6,0.3-1.5,2.4,0.1c1.6,1.8,1,3.2-0.2,2.3c-0.4-0.4-0.5-0.7-0.4-0.7
						c-0.6-0.5-1.5-1.1-1.1-0.1l0.5,0c0.6,1.1,3,3.4,2,3.3c1.5,1.1,1,0.1,0.1-0.9c1.8,2.6,3.4,3.4,5.4,5.9c-0.2-0.5-0.3-1.1,0.1-0.8
						c3,3.6,1.9,1,4.3,3.1c0.9,1.7-1.4,0.5,1.2,2.4c1.1,1.6-0.4,1-1.1,0.6c2.5,1.6,3.5,4.2,4.6,5.4l-1.3-0.9
						c0.8,0.5,1.3,1.1,1.8,1.6l-0.1-1.1c0.5,0.7,1.1,1.3,0.9,1.5c1,0.3,0.3-1.3,2.1-0.5c0.6,1.1,2.9,2.3,2.5,3.3
						c-2.4-2.9-0.4,1-2.7-1.2c0.5,0.4,1,0.9,1.6,1.6c0,0.2-0.2,0-0.4-0.1c2,3.2,1.9,0.4,4.6,3.1c-0.7,0-0.1,1.3,0.4,1.7
						c-1.1-1.1,0.1-1.1,1.4-0.4c1.4,2,2.1,1.6,2.9,2.5l-0.9-1.2c0.7,0,1.5,0.9,2.8,1.9c-0.2,0.4-1.3-0.9-1-0.3c2,0.7,2.3,3.7,4.6,5
						c0.6,1.1-0.6,0.8-0.1,1.7c2.5,1.6,1.7,2.7,4.3,4.5c-0.1-1.1-0.3-1.1,1.7-0.1l-3.9-3.2l3,1.5c-1.1-1.1-2.6-1.9-3.1-2.7
						c1.5,0.7,1.3,0.7,1.2-0.2c0.7,2.2,3.3,2.5,4.5,4.7l-1.3,1.2c2,3.1,5.2,3.9,8.2,7.5l-0.8-1.3c0.9-0.1,2.1,2,3.4,2.8
						c-0.5,0.3,0,1.1,0.2,1.9c0.3-0.4,2.4,2.4,3.5,1.9l0.9,2c2.4,2.9,4.2,1.9,6.7,4.6c-1.2-0.3-0.4,1.1-2.4-0.2
						c0.9,0.9,1.5,1.7,1.8,1.4c0.2,0.8,2.9,1.8,3.3,3c0.5,0.2,1.1-0.1,2,0.9c0,0.2-0.2,0.2-0.2,0.2c0.2-0.2,1.8,1.2,1.4-0.1
						c1.3,3.9,7.5,7.3,8.6,10.7c2,1.7,4.4,3.8,6.1,5.5c-0.2,0-0.2,0.2-0.5-0.2c2,2.7,2.6,0.2,4.9,3.3c0.7,2-1.8-1-1.2,0.1
						c-1,1.7,3.4,3,4.4,5.6l-0.5-0.4c0.9,1.8,3.9,2.8,6,5.2c0,0-0.2,0-0.2,0.2c2.2,0.8,5.4,3.5,7.7,5.5c-1.2-0.1-1.3-0.7-1.4,0.3
						c1,0.9,0.6-1.2,2.7,0.6c0.3,0.9,1.5,2.6,1.1,3.3l-1.8-1.8c0.2,1.7,2.4,2.3,3.2,3.4l-0.5,0.2c2.9,2.7,3.8,1.9,6.7,4.9l-0.1-0.6
						c2.5,0.8,0.9,1.8,3.2,2.9l-0.3,1.3c1.3,0.9,4.6,3,6.7,4.8c-1.7-0.5-4.3-2.4-6.1-3.5c1.1,1.1,3.7,3.6,4.7,3.7
						c-0.5-0.4-1.3-0.7-1.6-1.2c2,0.7,4,2.1,6.1,4.2c-2,1.2,5.1,6,5.4,8.8c4.4,3.2,7.2,7.7,11.7,12c-0.3-2.8,1.3,1.2,2.3-0.3
						c1.1,0.9,1.5,1.4,1.5,1.5l2.3,3.9c0.4,1.1-1.3-0.7-1.5-0.3c2.1,2.3,0.4,1.5,1.5,3.3c0.2-0.8,1.4,0.1,2.5,1.6l-1.2-2.4
						c3.8,2.4,1.6,3.8,5.5,6.3l-1.4-0.6c1.9,1.4,6,6,8.6,6.5c0.1,0.4,0.2,1.2-0.6,0.6c3.7,4,9.7,7.5,12.1,11.2l-0.6,0
						c0.8,0.6,1.9,0.7,2.4,1.9c-0.2,0.1-0.6,0-0.3,0.4c0.5,0.3,2.5,1.4,3.2,2.5l-1.2-0.5c3.4,4.2,6.7,4.9,10,7.9
						c-0.9,0.9,1.7,4.2,3.1,5.8l-0.2,0.1c4.3,4.5,8.2,6.7,12.7,10.4c1.5,3.5,8.1,9,11.6,13.6c-0.5-0.8,0.8-0.6,1.6,0
						c0.8,1.1,3.3,2,2.3,2.7l-0.3-0.4c-0.1,1.6,2.1,3.3,3.6,4.8l1.4-0.9c2.4,5.6,11.1,9.9,11.8,13.5c1.2,0.7,2.4,1.9,3.7,2.6
						l-0.7,0.5c2.5,2.8,3.8,4.2,7.2,7.4l-1.1-0.2c1.8,1.9,4.1,0.6,5.8,2.3l-0.4,1.4c3.3,3.2,5.8,7.3,9.8,9.7
						c-0.2,0.1-0.5,0.2-1.1-0.2c1.5,1.6,5.3,6.5,6,4.7c-0.8,0.8,3.3,3.4,5.4,4.8l-0.9,0.3c2.2,0.7,2.5,0.6,4.8,2.4
						c0.4,0.6,0,0.9-0.5,0.1c1.3,1.9,1.8,0.7,3.5,3l-1.1-0.4c1.6,1.7,1.7,1.4,3.1,1.9c1.3,0.8,3,3.3,2.8,4.1
						c0.6-0.1,1.9,0.4,2.7,1.5c-0.1,0.3-0.6,0.1-0.8,0c2.4,3.2,4.9,3.5,6.2,6c-0.2,0.2-0.1,0.5,0,0.7c-2.2-2.3-4-4.1-3.8-4
						c-0.5,0.5,1.2,2.4-1,1.8c1.9,1,5.2,2.6,6.7,4.6c0,0.1,0.1,0.3,0,0.4l-0.2-0.1c0.4,0.5,0.8,0.8,1.2,1c0.5,0.7,0.8,1.1,1.3,1.6
						c-0.2,0.7,1.8,2.3,2.7,3.2c0.5-0.7,1.6,0.6,1-1c0.1,0.2-0.2-0.1-0.9-0.7c-0.2-0.1-0.3-0.3-0.4-0.3c0,0,0.1,0,0.1,0
						c-0.6-0.6-1.4-1.3-2.3-2.2c1,0.4,2,0.9,2.7,2.2c0.8,0.1,1.7,0.2,2.2,0.3c0.4,2.1,2.3,4.9,2.1,5.7c3.1,2.4,6.7,6.3,9.5,6.9
						c0.9,0.6,0.6,1.2,0.7,1.7c-0.6-0.3-1.1-0.9-1.5-1c1.9,1.3,4.7,4.5,5.9,4.1c1.6,2.3-1.8-0.4,1,2.2l-0.6-0.1
						c4.1,6.6,10.7,6.7,15,14.2c-0.3-0.5-0.5-0.8-0.4-1c6,7.4,14.5,13.2,20.1,21c1.7,2.1,2.4,1.8,3.9,2.6l-0.2,1l2.7,1.2
						c3.3,2.3,3.3,6.4,7.8,8.9l0-0.9c1.2,1.4,4.3,3.8,3.6,4.1c0.2,0.1,0.9,0,1.1,0.7l-0.3,0.4l3.7,2.5c2.2,2.7-1.7,1,1.8,4.5
						c1.4,1.2,4.7,2.8,4.4,2c-0.5-0.5-1.1-1.6-0.8-1.9l1.4,1c1.2-0.8,3.1-0.9,0.9-4.5l-2.7-1.4l-0.2-1.1l1.8,1.7
						c-0.5-1.4-1.5-1.7-2.5-2.1c0.1-0.4,0-0.9-0.3-1.4l-3-1.1c0.1-0.6,1.7,0.1,0.5-1.4c-1.4-0.5,0,1.8-1.8,0.5
						c-0.5-1.4,0.1-1.5-1.4-2.3c0.1-0.4,0.5-0.3,1.1,0c-1.3-0.7-2.8-2.6-3.9-2.6c-0.5-1.6-3.6-3.3-2.6-4.2c-0.5-0.1-2.5-1.1-3.5-2
						c2.8,0.6-3.5-3.6-1.8-4.3c-2.3-0.3-5.1-4.2-7.9-5.9c0.2,0,0.6,0.1,0.8,0.4c-1.2-1.4-1.3-2-1.9-3c-1,0.7-3.2-1.1-4.7-1.7
						c-0.8-2.4,1.9,0,2.2-1.3c-0.6,0.8-3.4-2-3.4-0.9c-0.7-1.7-0.8-1.3-0.7-2.6c-1.2,0.8-1.3-0.9-2.9-1.3c-1.2-2.2,0.5-1.4-1.7-3
						C459.3,453.3,461.4,454.6,461.4,454.6z M414.6,411.4C414.6,411.4,414.6,411.4,414.6,411.4c0.4,0.4,0.8,0.7,1,0.9
						C415.3,412.1,415,411.8,414.6,411.4z M410.8,407.6c0.4,0.5,1,1.1,1.6,1.7c-0.1,0.3-0.4,0.4-0.8,0
						C411.9,409.3,411.1,408.3,410.8,407.6z M414.6,419.7c-0.7-0.5-0.8-0.8-0.7-1c0.3,0.3,0.6,0.6,1.1,1c0,0,0.1,0,0.1,0
						C415,419.7,414.8,419.8,414.6,419.7z"/>
					<path id="XMLID_104_" class="st1" d="M416.5,420c0.1,0.1,0.2,0.1,0.3,0.2c-0.1-0.2-0.1-0.3-0.2-0.5c-0.1,0-0.3,0-0.4,0
						C416.3,419.8,416.4,419.9,416.5,420z"/>
					<path id="XMLID_105_" class="st1" d="M74.4,76.1L74.4,76.1c0,0,0-0.1,0-0.2C74.4,76.1,74.4,76.1,74.4,76.1z"/>
					<polygon id="XMLID_106_" class="st1" points="359.6,354.2 359.5,354.4 360,354.6 					"/>
					<path id="XMLID_107_" class="st1" d="M55.6,53.2c0-0.1,0-0.2-0.1-0.4C55.4,52.9,55.5,53,55.6,53.2z"/>
					<path id="XMLID_108_" class="st1" d="M46.7,44.1l-1.1-1.5C46.1,43.3,46.4,43.8,46.7,44.1z"/>
					<path id="XMLID_109_" class="st1" d="M40.1,36.9c-0.2,0-0.3,0.1-0.4,0.1c0,0,0,0,0,0L40.1,36.9z"/>
					<path id="XMLID_110_" class="st1" d="M150.8,146.2c0.1,0.1,0.2,0.2,0.3,0.2C151.9,147,151.4,146.6,150.8,146.2z"/>
					<path id="XMLID_111_" class="st1" d="M116.7,114.9c0.5,0.2,0.9,0.5,1.3,0.8C117.5,115,117,114.6,116.7,114.9z"/>
					<path id="XMLID_112_" class="st1" d="M188.1,182.1C188.1,182.1,188.1,182.1,188.1,182.1c0.1,0.1,0.1,0.2,0.2,0.2L188.1,182.1z"
						/>
					<path id="XMLID_113_" class="st1" d="M119.5,117.2c-0.5-0.7-1-1.2-1.5-1.5C118.5,116.2,119,116.8,119.5,117.2z"/>
					<path id="XMLID_114_" class="st1" d="M10.3,6.6L10,6.3c0,0-0.1,0.1-0.1,0.1L10.3,6.6z"/>
					<path id="XMLID_115_" class="st1" d="M9.9,6.3L9.5,6C9.6,6.2,9.8,6.3,9.9,6.3z"/>
					<path id="XMLID_116_" class="st1" d="M8.5,5.4L9.5,6C9.2,5.8,8.9,5.4,8.5,5.4z"/>
					<path id="XMLID_117_" class="st1" d="M19.2,16.1l0.3-0.1C19.5,15.9,19.3,16,19.2,16.1z"/>
					<path id="XMLID_118_" class="st1" d="M22.1,18.8c-0.6-0.7-1.2-2.1-2.3-2.9L19.6,16C20.3,16.1,21.1,18.5,22.1,18.8z"/>
					<path id="XMLID_119_" class="st1" d="M31,33.1l-2.2-2.5c0.2,0.6,0.4,1.5-0.7,0.5C30.4,34.7,28.1,29.9,31,33.1z"/>
					<path id="XMLID_120_" class="st1" d="M37.9,40.7c-1.4-1.1-0.3,0.3-0.5,0.4C38.4,41.6,38.7,41.8,37.9,40.7z"/>
					<path id="XMLID_121_" class="st1" d="M90.2,92.9l-0.7,0.4C90.6,94.2,89.8,93.2,90.2,92.9z"/>
					<polygon id="XMLID_122_" class="st1" points="103,100.1 102.4,98.8 101.5,98.9 					"/>
					<polygon id="XMLID_123_" class="st1" points="105,109.9 104.5,109.6 106.4,111 					"/>
					<path id="XMLID_124_" class="st1" d="M193.1,197.5l0.4-1C192.7,196,191.8,196.6,193.1,197.5z"/>
					<path id="XMLID_125_" class="st1" d="M231.6,234.7c0.1,0.7,0.9,2,1.9,2.4C232.7,236.2,232.2,235.1,231.6,234.7z"/>
					<polygon id="XMLID_126_" class="st1" points="344.2,349.5 343.3,349 344.9,350.2 					"/>
				</g>
			</g>
		</g>
	</g>
</g>
<g id="XMLID_190_">
	<g id="XMLID_264_">
		<g id="XMLID_268_">
			<g id="XMLID_269_">
				<g id="XMLID_270_">
					<path id="XMLID_325_" class="st2" d="M-1.4,498.6c-0.1,0.4,0.5,0.7,1.1-0.1l-0.2-1.2L-1.4,498.6z"/>
					<path id="XMLID_324_" class="st2" d="M4.8,495c0.5-1.2,0.9-2.8-0.3-2.9c-0.2,1.5-0.7,1.4-0.8,3.2c-0.6,0.8-1.5,1-1.6,0.7
						c-0.1,0.4-1.3,1-1.2,1.8c1.5-0.4,2.7-1.6,3.5-3.3C4.8,494.4,4.7,494.8,4.8,495z"/>
					<path id="XMLID_323_" class="st2" d="M76.8,425.2l-0.5,0.4C76.4,425.5,76.6,425.4,76.8,425.2z"/>
					<path id="XMLID_322_" class="st2" d="M121.1,381.7c-0.3,0.4-0.4,0.6-0.3,0.6C121,381.9,121.2,381.6,121.1,381.7z"/>
					<path id="XMLID_321_" class="st2" d="M129.4,374.9c-0.2,0.1-0.3,0.3-0.5,0.4C129.1,375.2,129.3,375.1,129.4,374.9z"/>
					<path id="XMLID_320_" class="st2" d="M76.8,425.2l1.4-1C78,423.9,77.4,424.7,76.8,425.2z"/>
					<path id="XMLID_319_" class="st2" d="M12.9,483.5c-0.2,0.3-0.4,0.5-0.5,0.8c0.2-0.2,0.3-0.5,0.5-0.7
						C12.9,483.6,12.9,483.6,12.9,483.5z"/>
					<path id="XMLID_318_" class="st2" d="M58,445.1l-0.4,0.4c0,0.2,0,0.4,0,0.6L58,445.1z"/>
					<path id="XMLID_317_" class="st2" d="M43.2,460.1c0.4-0.3-0.1-1-0.2-1.4c0.1,0.4-0.1,0.8-0.3,1.1C42.8,460,42.9,460,43.2,460.1
						z"/>
					<path id="XMLID_316_" class="st2" d="M18.6,482.6l-0.3,0.5C18.3,483,18.5,482.8,18.6,482.6z"/>
					<path id="XMLID_315_" class="st2" d="M68.7,434.6c0.1,0.1,0.2,0.1,0.3,0.1C69,434.6,68.9,434.6,68.7,434.6z"/>
					<path id="XMLID_314_" class="st2" d="M480,14.4c0,0.1,0.1,0.1,0.1,0.1C480.1,14.4,480.1,14.3,480,14.4z"/>
					<path id="XMLID_313_" class="st2" d="M500.2,0.2l-0.2,0.3c0.1,0.1,0.2,0.3,0.3,0.4L500.2,0.2z"/>
					<path id="XMLID_312_" class="st2" d="M143.9,362C143.8,362,143.8,362,143.9,362C143.5,362.4,143.7,362.2,143.9,362z"/>
					<path id="XMLID_311_" class="st2" d="M269.4,235.5c-2,0.9,1.6-3-1.1-1.5C268.8,234.1,267.3,236.9,269.4,235.5z"/>
					<path id="XMLID_310_" class="st2" d="M13.3,483.2c0.2-0.2,0.4-0.4,0.6-0.6C13.6,482.9,13.4,483.1,13.3,483.2z"/>
					<path id="XMLID_309_" class="st2" d="M268.3,234C268.3,234,268.3,234,268.3,234l-0.3,0.2C268.2,234.1,268.2,234.1,268.3,234z"
						/>
					<path id="XMLID_308_" class="st2" d="M175.1,330c-0.2,0-0.4,0-0.6,0.1C174.6,330.1,174.8,330.1,175.1,330z"/>
					<path id="XMLID_307_" class="st2" d="M150.7,352.7l0.7-0.5C151.1,352.4,150.9,352.5,150.7,352.7z"/>
					<path id="XMLID_306_" class="st2" d="M186.5,316.9c0.4-0.3,0.6-0.3,0.9-0.8c-0.1,0-0.1,0-0.2,0.1
						C187.1,316.4,187,316.6,186.5,316.9z"/>
					<path id="XMLID_305_" class="st2" d="M199.2,304.2c-0.1,0-0.2,0.1-0.4,0.1c-0.1,0.1-0.3,0.3-0.4,0.4L199.2,304.2z"/>
					<path id="XMLID_304_" class="st2" d="M441.6,53.4c0.4-0.1,0.8-0.1,1.1-0.1C442.1,53.1,443.8,51.1,441.6,53.4z"/>
					<path id="XMLID_303_" class="st2" d="M13.2,483.9c-0.1-0.2,0-0.4,0.1-0.6c-0.1,0.2-0.3,0.3-0.4,0.5
						C13,483.8,13.1,483.9,13.2,483.9z"/>
					<path id="XMLID_302_" class="st2" d="M182.3,311.7l2.1-1.9C183.8,310.2,183.1,311,182.3,311.7z"/>
					<path id="XMLID_301_" class="st2" d="M350.3,144.9l0.4-0.5C350.5,144.5,350.3,144.7,350.3,144.9z"/>
					<path id="XMLID_300_" class="st2" d="M190.4,303.6c0.6-0.2,1.1-0.4,1.6-0.7c0-0.1,0.1-0.3,0.1-0.4L190.4,303.6z"/>
					<path id="XMLID_299_" class="st2" d="M442.7,53.4C442.7,53.4,442.7,53.4,442.7,53.4C442.7,53.4,442.7,53.4,442.7,53.4z"/>
					<path id="XMLID_294_" class="st2" d="M454.6,38.6c-1.9,1.9-0.1,1.7-0.1,2.5c-2.1,2.5-1.6,0.5-2.8,0.9c-1.2,1.6-1.6,3.5-2.7,4.5
						c-0.2,0-0.5,0.1-0.4-0.3c-0.9,2.1-4.5,4.5-5.5,7.1c-0.2,0.1-0.3,0.1-0.4,0c0.7,0.1,1.1,0.5,1.3,0.8c-0.9,0.9-1.1,2.1-1.9,1.9
						c0.5-0.5,0.4-0.8,0.5-1.2l-0.7,1.1c-1.6,0.1,1-1.5,0.4-2c-1.5,2-3,4.7-4.5,5.8c-1-0.4,2.9-3.4,0.5-2.2l2.4-1.8
						c-2.7,0.5,1.4-1.2-1.3-0.9c-3,2.5-2.7,3.4-5.7,6c-0.2,1,0.8,0.4,0.6,1.4c-3.2,4.6-4.9,1.3-6.8,5.1c-0.3,1.2,0.4,2.4-2.2,4
						l-0.1-1.5c-2.7,2.6-0.4,2.7-3.7,4.9c0.2-0.8,1.8-2.4,1.3-2.1c-2.5,1.2-0.8,1.7-2.2,3.1l-1-0.4c-2.7,3-5.3,6.6-8.3,9.9
						c0-0.4,0.3-1.2-0.7-0.6c-3.6,4.3-8.6,8.4-12.8,11.8l-0.8,2.1c-0.3,0.3-0.9,0.3-0.7-0.1c-1.7,1.3,0.3,0.5-0.2,1.4
						c-0.8,0.9-1.5,0.8-1.1,0c-2.1,3.2-6.4,8.6-9.8,10.7l0.4-0.7c-2.4,1.9-1.2,3.7-3.7,5.1l0.3-0.5c-5,4.4-9.6,10.2-14.1,12.8
						c0.2,1.6-5,4.2-4.1,5.8c-3.3,2.1-2.8,1.1-6.9,4.4c-1.1,0.9-0.7,2.3-1.8,3.7l-0.7-0.6l-1,2.4l-1.7,0.1l-1,1.3
						c0.5-0.4,1.3-0.7,1.4-0.4c-1.5,2.1-4.9,4-5.3,3.7l-3.8,4.9c-0.2-0.4,0.5-1.2,0.9-1.9c-1.6,3-1.1-0.3-2.6,2.5
						c0.4-0.1,0.2,0.5,0.3,0.7c-1.4,0.7-3.8,3-5.4,5l-0.1-0.8c-3.3,3.1-6.5,7-10.1,10.5c1.5-1.1,2,0,1,1.1l-1.1-0.3
						c-0.3,1.1,1.4-0.8,0.5,1.1c-1.4,1.3-1.7,0.1-1.1-0.9l-1.4,1.9c-0.3-0.1,0-0.6-0.2-1c-0.2,1.1-3.5,2.1-3.7,3.8l-0.3-0.1
						c-3.6,3.6-5,5.4-7.9,8.4c0.5,0.7-0.7,1.7-1.1,3c-2.3,2-5.2,3.9-7.7,6.5c-1.5,2.1,0,1-0.5,2.2c-0.7-0.4-3.2,2.2-2.3,0.5
						c-3,3.2-3.9,4.1-7.3,8.4c0.6-0.2,1.2-0.6,1.2-0.2c-0.6,0.8-1.9,1.4-2,1l0.1-0.2c-3.6,5.2-11.8,8.6-14.1,13.2l0.1-0.3l-3.1,4.2
						c-1.8,1.6,0.6-1.4-1-0.5c-3,4.8-6.3,6.1-9,9.9c-4.1,0.9-8.8,9-13.2,11.4l0.6,0.2c-0.5,1.2-1.3,0.8-2,1.4
						c0.4,0.2,1.3-0.6,0.9,0.1c-6.9,7.9-15.8,14.7-23.8,22c-2.9,2.7,0.4,3.5-4,6.1l0.3-1.7c-4.8,6.4-11.5,11.4-16.3,17.6
						c0.2-0.5,0-0.7,0.5-1.2c-1.7,0.6-4.3,4.3-3.9,4.7c-0.9,0.8-0.6-0.2-1.3,0.1c-1.5,0.9-2.3,3.6-3.4,3.7c-0.2,0,0.2-0.5,0.3-0.7
						c-0.5,1-3.6,3.5-2.3,3.3c-2.3,1.8-3.7,4.2-5.7,5.5c-0.4,1.7-3.8,3.2-3.2,4.5c-0.8-1.1-4.4,2.8-5.2,4.6c0.1-0.7-1.4,0.8-1.3-0.1
						c-1.5,1.5-2.7,3-1.9,3.3c-3.9,1.6-4.6,6.4-7.6,6.5c-3.9,4.9-7.6,9.4-11.4,13.5c-0.8-1.1,4.3-4.5,3.1-5.3
						c-3.4,4.2-4.7,7.2-8.7,10.7c-1.1,0.8,0.1-1,0.3-1.5c-3.4,4.2-7.4,7.2-10.2,11.1c-0.1-0.1,0.2-0.6,0.5-1
						c-0.6,0.7-1.7,1.4-1.2,1.8l0.5-0.8c1.7-0.4-1.3,3.9-1.1,4.4c-0.1-2.4-3.6,3-3.4-0.4c-0.4,0.5-0.7,1.3-0.3,1.5
						c-0.7,0.6-1.1,0.6-0.8-0.4c-2.1,2.6-0.8,2.2-3,4.4c-0.2-0.2,0.1-0.7,0.1-1.2c-0.7,1.5-1.4,3-3.3,4.6c0-0.2-0.4-0.2,0.1-0.7
						c-3,3.2-4.2,6.4-8,9.4c0.1-1.9-1.5,0.9-2.4,0.2L122,374l1.1-0.4c-1.6,1.6-2.5,3.6-4.1,4.7l0.9-1.5L117,380l2-1.4
						c-1.2,2,1.2,0.8-1.2,2.7c0.4-0.5-1.6,1.6-2.9,2c0,0,0,0,0,0c-0.5,1-1.1,2.1-2.5,3.1c-0.6,0.1-0.6-1.1-1-1.1
						c-0.1,1.4-3.6,3.9-3.9,5.6c0.2-0.5-0.2-0.9-0.4-0.9l-0.1,1.2c-0.9,0.6-1.1,0.6-1.3,0.1c-2.3,2.1,1.7,0.3-1.4,2.5
						c0.2-0.3,0-0.2,0.3-0.7c-2.9,2.4-4.8,5.5-7.5,7.7c-1.5-0.1,1.9-2.3,0.4-2.2c-3.4,3.7-6.4,8.3-10,11.5l0.7-0.5
						c0.7,1.6-3.1,2-4.3,4.2c0.3-0.5-0.1-1.2-0.1-0.9c-2.5,2.2-4.5,5.1-7.7,9l0.2-0.7c-1.6,1.1-3.8,3.5-5.4,4.8
						c-0.2,0.7-1.1,1.5-0.1,1.4c-6.2,2.9-7.9,9.6-13.3,12.4c0.5-0.5,0.9-1.4,0.5-1l-3.2,3.7c0.8,0.2,0.8-0.2,1.9-0.5
						c-0.1,0.7-0.9,1.9-1.8,2.8c1.2-1.9-0.8-0.8-1.7-0.4c0.3,0,0.2,0.4,0.4,0.5c-2.7,0.9,0.7,1.3-2.4,3.2l-0.1-0.4
						c-0.8,1.1-1.3,2.3-2.4,3.2c-1-0.2,0.7-1.3,0.3-1.8c-1.4,1.4-1.7,3.8-3.5,4.5c0.4-0.8,1.3-1.6,1.7-2.4c-2,0.7-2,1-3.2,2l0.1-0.1
						l-2.7,2.1l0.8-0.4c-0.3,3.2-3.3,3.8-4.7,7.2c1.4-3.2-0.2-0.9-0.6-1.7c-0.8,0.4-1.9,1.1-1.8,0.7c-0.6,1.6-2.3,1.5-3.1,3.8
						c-0.3-0.1-1.2,1.2-1.5,0.4c-1.3,1.6,0.7,0,0.8,0.4c-1.5,2.9-6.1,4.4-8.4,8.6c-2.4,3.2-2.2,4.4-4.4,7.3c-1.2,0.5,0-1.5,0-1.5
						c-1.7,1.1-2.7,2.2-3.8,3.8c0.1-0.4-0.3-0.3-1-0.2c-1,1.1,0,1.5-1.7,2.6c0-0.5-0.1-1.1,0.2-1.9c-1.1,1.4-1.9,3.1-3,4.5
						c-0.7,0,0.2-1.3,0.5-2c-1.3,1.6-3.4,4.1-3.3,5.1l1.1-0.7c-0.5,0.6-0.8-0.2-0.5-0.7c0.8-1.7,2-1.6,2.3-1.5l-0.8,1.1
						c2.2,0.3,3.5-3.9,5.4-5.7l0.1,1.7l1.2-2.6c0.6-0.2,1.4,0,0.6,1.1c1.8-0.9,0.9-1.5,2.5-2.2c0.2-0.1,0.2,0,0.1,0.2l1-1.6
						c-0.1,0.4,0.8,0.4-0.1,1.1c2.8-1.8,3.1-4.4,4.7-4.6l-0.1,0.2c2.9-3.5-0.3-1,1.3-4.2l3.2,0l-0.3-1c0.4-0.3,1.1-0.9,1.2-0.5
						c0.8-1.7-0.5-0.1-0.2-1.2c2.2-1,4.2-4.7,5.6-4c0.1-1.1-1.9,1.2-0.5-0.9c1.6,0.6,1.8-2.2,3.8-3.1c0.1,1-1.6,2.1,0.4,1.2
						c-0.1-1.9,3.1-2.7,4.1-4.1c-0.7-0.8,2.4-3,4.2-5.4c0.1,0.4,4.3-3.5,6.6-5.1l0.1,0.2c-0.4-1.2,1.7-3,3-4.6c0.4,0.5,0.3,1-0.2,2
						l1.4-1.4c0.1-0.6,0.4-1.1,1.2-2.1l0.2,0.9c1.8-1.9,3-4.3,5.7-6.3c-0.4-0.7-3.4,0.3-1.3-2.5c0.4,0.2,1,0.6,0.5,1.4
						c0.2-0.3,0.5-1,1.1-1.3l-0.5,1.5c1.3-0.8,0.1-1,1-1.8c0.4,0.4,0.9-0.3,1.1,0.1c-0.2,0.3-0.9,0.6-1.1,1.1c1-0.9,2.4-1.8,3.1-1.9
						c-0.3-0.2-0.6-0.6,0.1-1.3c1.8-1.8,1.1-0.1,2.4-1c0.1-0.7,1.6-1.6,1-2.2c0.5-0.5,0.9-0.3,1.3-0.4c0.7-1.2,4.3-4.5,2.6-4.1
						l-0.3,0.2c0-0.1,0.1-0.1,0.1-0.2c0,0,0,0,0,0l0,0c2.5-3.7,6.8-6.1,9.6-9.4l0.2,0.2c1.6-2.1,3.9-4.2,4.8-6
						c0.5-0.5,1.7-0.9,1.7-0.4c1.2-1.6,1.2-1.9,3.5-3.6c-1,1.8,0.8-0.2-1.2,1.7c2-1.6,2.7-1.7,4.1-4.2c-0.1,1.2,2-0.7,2.7-1.7
						l-1.7,0.9c0.9-1,1.8-1.8,2.7-2.7l0.2,1.2c4.6-2.9,5.2-8.2,9.5-9.6c0.5-1.5-2.4,1.7-2.1,0.2c1.8-1.6,4.6-2.4,5.1-2.9
						c2.7-1.9,1.2-3.2,3.9-5.4c-0.6,0.1-1.5-0.3,0.1-2.4c1.8-1.6,3.2-1,2.3,0.2c-0.4,0.4-0.7,0.5-0.7,0.4c-0.5,0.6-1.1,1.5-0.1,1.1
						l0-0.5c1.1-0.6,3.4-3,3.3-2c1.1-1.5,0.1-1-0.9-0.1c2.6-1.8,3.4-3.4,5.9-5.4c-0.5,0.2-1.1,0.3-0.8-0.1c3.6-3,1-1.9,3.1-4.3
						c1.7-0.9,0.5,1.4,2.4-1.2c1.6-1.1,1,0.4,0.6,1.1c1.6-2.5,4.2-3.5,5.4-4.6l-0.9,1.3c0.5-0.8,1.1-1.3,1.6-1.8l-1.1,0.1
						c0.7-0.5,1.3-1.1,1.5-0.9c0.3-1-1.3-0.3-0.5-2.1c1.1-0.6,2.3-2.9,3.3-2.5c-2.9,2.4,1,0.4-1.2,2.7c0.4-0.5,0.9-1,1.6-1.6
						c0.2,0,0,0.2-0.1,0.4c3.2-2,0.4-1.9,3.1-4.6c0,0.7,1.3,0.1,1.7-0.4c-1.1,1.1-1.1-0.1-0.4-1.4c2-1.4,1.6-2.1,2.5-2.9l-1.2,0.9
						c0-0.7,0.9-1.5,1.9-2.8c0.4,0.2-0.9,1.3-0.3,1c0.7-2,3.7-2.3,5-4.6c1.1-0.6,0.8,0.6,1.7,0.1c1.6-2.5,2.7-1.7,4.5-4.3
						c-1.1,0.1-1.1,0.3-0.1-1.7l-3.2,3.9l1.5-3c-1.1,1.1-1.9,2.6-2.7,3.1c0.7-1.5,0.7-1.3-0.2-1.2c2.2-0.7,2.5-3.3,4.7-4.5l1.2,1.3
						c3.1-2,3.9-5.2,7.5-8.2l-1.3,0.8c-0.1-0.9,2-2.1,2.8-3.4c0.3,0.5,1.1,0,1.9-0.2c-0.4-0.3,2.4-2.4,1.9-3.5l2-0.9
						c2.9-2.4,1.9-4.2,4.6-6.7c-0.3,1.2,1.1,0.4-0.2,2.4c0.9-0.9,1.7-1.5,1.4-1.8c0.8-0.2,1.8-2.9,3-3.3c0.2-0.5-0.1-1.1,0.9-2
						c0.2,0,0.2,0.2,0.2,0.2c-0.2-0.2,1.2-1.8-0.1-1.4c3.9-1.3,7.3-7.5,10.7-8.6c1.7-2,3.8-4.4,5.5-6.1c0,0.2,0.2,0.2-0.2,0.5
						c2.7-2,0.2-2.6,3.3-4.9c2-0.7-1,1.8,0.1,1.2c1.7,1,3-3.4,5.6-4.4l-0.4,0.5c1.8-0.9,2.8-3.9,5.2-6c0,0,0,0.2,0.2,0.2
						c0.8-2.2,3.5-5.4,5.5-7.7c-0.1,1.2-0.7,1.3,0.3,1.4c0.9-1-1.2-0.6,0.6-2.7c0.9-0.3,2.6-1.5,3.3-1.1l-1.8,1.8
						c1.7-0.2,2.3-2.4,3.4-3.2l0.2,0.5c2.7-2.9,1.9-3.8,4.9-6.7l-0.6,0.1c0.8-2.5,1.8-0.9,2.9-3.2l1.3,0.3c0.9-1.3,3-4.6,4.8-6.7
						c-0.5,1.7-2.4,4.3-3.5,6.1c1.1-1.1,3.6-3.7,3.7-4.7c-0.4,0.5-0.7,1.3-1.2,1.6c0.7-2,2.1-4,4.2-6.1c1.2,2,6-5.1,8.8-5.4
						c3.2-4.4,7.7-7.2,12-11.7c-2.8,0.3,1.2-1.3-0.3-2.3c0.9-1.1,1.4-1.5,1.5-1.5l3.9-2.3c1.1-0.4-0.7,1.3-0.3,1.5
						c2.3-2.1,1.5-0.4,3.3-1.5c-0.8-0.2,0.1-1.4,1.6-2.5l-2.4,1.2c2.4-3.8,3.8-1.6,6.3-5.5l-0.6,1.4c1.4-1.9,6-6,6.5-8.6
						c0.4-0.1,1.2-0.2,0.6,0.6c4-3.7,7.5-9.7,11.2-12.1l0,0.6c0.6-0.8,0.7-1.9,1.9-2.4c0.1,0.2,0,0.6,0.4,0.3
						c0.3-0.5,1.4-2.5,2.5-3.2l-0.5,1.2c4.2-3.4,4.9-6.7,7.9-10c0.9,0.9,4.2-1.7,5.8-3.1l0.1,0.2c4.5-4.3,6.7-8.2,10.4-12.7
						c3.5-1.5,9-8.1,13.6-11.6c-0.8,0.5-0.6-0.8,0-1.6c1.1-0.8,2-3.3,2.7-2.3l-0.4,0.3c1.6,0.1,3.3-2.1,4.8-3.6l-0.9-1.4
						c5.6-2.4,9.9-11.1,13.5-11.8c0.7-1.2,1.9-2.4,2.6-3.7l0.5,0.7c2.8-2.5,4.2-3.8,7.4-7.2l-0.2,1.1c1.9-1.8,0.6-4.1,2.3-5.8
						l1.4,0.4c3.2-3.3,7.3-5.8,9.7-9.8c0.1,0.2,0.2,0.5-0.2,1.1c1.6-1.5,6.5-5.3,4.7-6c0.8,0.8,3.4-3.3,4.8-5.4l0.3,0.9
						c0.7-2.2,0.6-2.5,2.4-4.8c0.6-0.4,0.9,0,0.1,0.5c1.9-1.3,0.7-1.8,3-3.5l-0.4,1.1c1.7-1.6,1.4-1.7,1.9-3.1
						c0.8-1.3,3.3-3,4.1-2.8c-0.1-0.6,0.4-1.9,1.5-2.7c0.3,0.1,0.1,0.6,0,0.8c3.2-2.4,3.5-4.9,6-6.2c0.2,0.2,0.5,0.1,0.7,0
						c-2.3,2.2-4.1,4-4,3.8c0.5,0.5,2.4-1.2,1.8,1c1-1.9,2.6-5.2,4.6-6.7c0.1,0,0.3-0.1,0.4,0l-0.1,0.2c0.5-0.4,0.8-0.8,1-1.2
						c0.7-0.5,1.1-0.8,1.6-1.3c0.7,0.2,2.3-1.8,3.2-2.7c-0.7-0.5,0.6-1.6-1-1c0.2-0.1-0.1,0.2-0.7,0.9c-0.1,0.2-0.3,0.3-0.3,0.4
						c0,0,0-0.1,0-0.1c-0.6,0.6-1.3,1.4-2.2,2.3c0.4-1,0.9-2,2.2-2.7c0.1-0.8,0.2-1.7,0.3-2.2c2.1-0.4,4.9-2.3,5.7-2.1
						c2.4-3.1,6.3-6.7,6.9-9.5c0.6-0.9,1.2-0.6,1.7-0.7c-0.3,0.6-0.9,1.1-1,1.5c1.3-1.9,4.5-4.7,4.1-5.9c2.3-1.6-0.4,1.8,2.2-1
						l-0.1,0.6c6.6-4.1,6.7-10.7,14.2-15c-0.5,0.3-0.8,0.5-1,0.4c7.4-6,13.2-14.5,21-20.1c2.1-1.7,1.8-2.4,2.6-3.9l1,0.2l1.2-2.7
						c2.3-3.3,6.4-3.3,8.9-7.8l-0.9,0c1.4-1.2,3.8-4.3,4.1-3.6c0.1-0.2,0-0.9,0.7-1.1l0.4,0.3l2.5-3.7c2.7-2.2,1,1.7,4.5-1.8
						c1.2-1.4,2.8-4.7,2-4.4c-0.5,0.5-1.6,1.1-1.9,0.8l1-1.4c-0.8-1.2-0.9-3.1-4.5-0.9L494,2.2l-1.1,0.2l1.7-1.8
						c-1.4,0.5-1.7,1.5-2.1,2.5c-0.4-0.1-0.9,0-1.4,0.3l-1.1,3c-0.6-0.1,0.1-1.7-1.4-0.5c-0.5,1.4,1.8,0,0.5,1.8
						c-1.4,0.5-1.5-0.1-2.3,1.4c-0.4-0.1-0.3-0.5,0-1.1c-0.7,1.3-2.6,2.8-2.6,3.9c-1.6,0.5-3.3,3.6-4.2,2.6c-0.1,0.5-1.1,2.5-2,3.5
						c0.6-2.8-3.6,3.5-4.3,1.8c-0.3,2.3-4.2,5.1-5.9,7.9c0-0.2,0.1-0.6,0.4-0.8c-1.4,1.2-2,1.3-3,1.9c0.7,1-1.1,3.2-1.7,4.7
						c-2.4,0.8,0-1.9-1.3-2.2c0.8,0.6-2,3.4-0.9,3.4c-1.7,0.7-1.3,0.8-2.6,0.7c0.8,1.2-0.9,1.3-1.3,2.9c-2.2,1.2-1.4-0.5-3,1.7
						C453.3,40.7,454.6,38.6,454.6,38.6z M411.4,85.4C411.4,85.4,411.4,85.4,411.4,85.4c0.4-0.4,0.7-0.8,0.9-1
						C412.1,84.7,411.8,85,411.4,85.4z M407.6,89.2c0.5-0.4,1.1-1,1.7-1.6c0.3,0.1,0.4,0.4,0,0.8C409.3,88.1,408.3,88.9,407.6,89.2z
						 M419.7,85.4c-0.5,0.7-0.8,0.8-1,0.7c0.3-0.3,0.6-0.6,1-1.1c0,0,0-0.1,0-0.1C419.7,85,419.8,85.2,419.7,85.4z"/>
					<path id="XMLID_293_" class="st2" d="M420,83.5c0.1-0.1,0.1-0.2,0.2-0.3c-0.2,0.1-0.3,0.1-0.5,0.2c0,0.1,0,0.3,0,0.4
						C419.8,83.7,419.9,83.6,420,83.5z"/>
					<path id="XMLID_292_" class="st2" d="M76.1,425.6L76.1,425.6c0,0-0.1,0-0.2,0C76.1,425.6,76.1,425.6,76.1,425.6z"/>
					<polygon id="XMLID_291_" class="st2" points="354.2,140.4 354.4,140.5 354.6,140 					"/>
					<path id="XMLID_290_" class="st2" d="M53.2,444.4c-0.1,0-0.2,0-0.4,0.1C52.9,444.6,53,444.5,53.2,444.4z"/>
					<path id="XMLID_289_" class="st2" d="M44.1,453.3l-1.5,1.1C43.3,453.9,43.8,453.6,44.1,453.3z"/>
					<path id="XMLID_288_" class="st2" d="M36.9,459.9c0,0.2,0.1,0.3,0.1,0.4c0,0,0,0,0,0L36.9,459.9z"/>
					<path id="XMLID_287_" class="st2" d="M146.2,349.2c0.1-0.1,0.2-0.2,0.2-0.3C147,348.1,146.6,348.6,146.2,349.2z"/>
					<path id="XMLID_286_" class="st2" d="M114.9,383.3c0.2-0.5,0.5-0.9,0.8-1.3C115,382.5,114.6,383,114.9,383.3z"/>
					<path id="XMLID_285_" class="st2" d="M182.1,311.9C182.1,311.9,182.1,311.9,182.1,311.9c0.1-0.1,0.2-0.1,0.2-0.2L182.1,311.9z"
						/>
					<path id="XMLID_284_" class="st2" d="M117.2,380.5c-0.7,0.5-1.2,1-1.5,1.5C116.2,381.5,116.8,381,117.2,380.5z"/>
					<path id="XMLID_283_" class="st2" d="M6.6,489.7L6.3,490c0,0,0.1,0.1,0.1,0.1L6.6,489.7z"/>
					<path id="XMLID_282_" class="st2" d="M6.3,490.1L6,490.5C6.2,490.4,6.3,490.2,6.3,490.1z"/>
					<path id="XMLID_281_" class="st2" d="M5.4,491.5l0.6-0.9C5.8,490.8,5.4,491.1,5.4,491.5z"/>
					<path id="XMLID_280_" class="st2" d="M16.1,480.8l-0.1-0.3C15.9,480.5,16,480.7,16.1,480.8z"/>
					<path id="XMLID_279_" class="st2" d="M18.8,477.9c-0.7,0.6-2.1,1.2-2.9,2.3l0.1,0.3C16.1,479.7,18.5,478.9,18.8,477.9z"/>
					<path id="XMLID_278_" class="st2" d="M33.1,469l-2.5,2.2c0.6-0.2,1.5-0.4,0.5,0.7C34.7,469.6,29.9,471.9,33.1,469z"/>
					<path id="XMLID_277_" class="st2" d="M40.7,462.1c-1.1,1.4,0.3,0.3,0.4,0.5C41.6,461.6,41.8,461.3,40.7,462.1z"/>
					<path id="XMLID_276_" class="st2" d="M92.9,409.8l0.4,0.7C94.2,409.4,93.2,410.2,92.9,409.8z"/>
					<polygon id="XMLID_275_" class="st2" points="100.1,397 98.8,397.6 98.9,398.5 					"/>
					<polygon id="XMLID_274_" class="st2" points="109.9,395 109.6,395.5 111,393.6 					"/>
					<path id="XMLID_273_" class="st2" d="M197.5,306.9l-1-0.4C196,307.3,196.6,308.2,197.5,306.9z"/>
					<path id="XMLID_272_" class="st2" d="M234.7,268.4c0.7-0.1,2-0.9,2.4-1.9C236.2,267.3,235.1,267.8,234.7,268.4z"/>
					<polygon id="XMLID_271_" class="st2" points="349.5,155.8 349,156.7 350.2,155.1 					"/>
				</g>
			</g>
		</g>
	</g>
</g>
</svg>
